<svg id="noxphone-pop" xmlns="http://www.w3.org/2000/svg" width="96" height="96" viewBox="0 0 96 96">
  <defs>
    <style>
      .cls-1 {
        opacity: 0.5;
      }

      .cls-2 {
        fill: #fff;
        fill-rule: evenodd;
      }
    </style>
  </defs>
  <circle id="noxphone-bg" class="cls-1" cx="48" cy="48" r="46"/>
  <path id="noxphone-circle" class="cls-2" d="M528,840a48,48,0,1,1-48,48A48,48,0,0,1,528,840Zm0,4a44,44,0,1,1-44,44A44,44,0,0,1,528,844Z" transform="translate(-480 -840)"/>
  <path id="noxphone-cloud" class="cls-2" d="M504.771,881.261l0.171,0.3a21.229,21.229,0,0,0,27.568,8.619,1.237,1.237,0,0,0,.126.892l0.137,0.239a1.223,1.223,0,0,0,1.68.456l5.92-3.454a1.249,1.249,0,0,0,.45-1.7l-0.137-.239a1.2,1.2,0,0,0-.588-0.5l2.531-1.468a1.212,1.212,0,0,0,.147.593l0.136,0.24a1.225,1.225,0,0,0,1.681.455l8.217-4.793a12.787,12.787,0,0,1,5.2,10.324,12.658,12.658,0,0,1-11.921,12.736v0.031H509.913v-0.008c-0.069,0-.136.008-0.2,0.008A11.956,11.956,0,0,1,504.771,881.261Zm16.446-13.269a13.311,13.311,0,0,1,11.613,6.894,9.492,9.492,0,0,1,5.652-1.871,9.63,9.63,0,0,1,8.618,5.424l-15.358,8.913c-8.334,4.836-19.511,1.215-24-7.013h0c0.108-.02-0.109.017,0,0A13.673,13.673,0,0,1,521.217,867.992Z" transform="translate(-480 -840)"/>
</svg>
