<svg xmlns="http://www.w3.org/2000/svg" preserveAspectRatio="xMidYMid" width="140" height="76" viewBox="0 0 140 76"><defs><style>.cls-1,.cls-2,.cls-4{stroke:#c0c9d3}.cls-1,.cls-2,.cls-3,.cls-4,.cls-5{stroke-linecap:round;stroke-linejoin:round;fill:none}.cls-1,.cls-2,.cls-3{stroke-width:.83px}.cls-2,.cls-3,.cls-4,.cls-5{fill-rule:evenodd}.cls-3,.cls-5{stroke:#cae0f6}.cls-4,.cls-5{stroke-width:1.66px}.gear-m{-webkit-animation-timing-function:linear;animation-timing-function:linear;-webkit-animation-iteration-count:infinite;animation-iteration-count:infinite;-webkit-animation-direction:normal;animation-direction:normal;-webkit-animation-play-state:running;animation-play-state:running;-webkit-animation-fill-mode:forwards;animation-fill-mode:forwards}@-webkit-keyframes rotateAnim{0%{-webkit-transform:rotate(0deg);transform:rotate(0deg)}50%{-webkit-transform:rotate(180deg);transform:rotate(180deg)}to{-webkit-transform:rotate(360deg);transform:rotate(360deg)}}@keyframes rotateAnim{0%{-webkit-transform:rotate(0deg);transform:rotate(0deg)}50%{-webkit-transform:rotate(180deg);transform:rotate(180deg)}to{-webkit-transform:rotate(360deg);transform:rotate(360deg)}}@-webkit-keyframes rotateReverseAnim{0%{-webkit-transform:rotate(0deg);transform:rotate(0deg)}50%{-webkit-transform:rotate(-180deg);transform:rotate(-180deg)}to{-webkit-transform:rotate(-360deg);transform:rotate(-360deg)}}@keyframes rotateReverseAnim{0%{-webkit-transform:rotate(0deg);transform:rotate(0deg)}50%{-webkit-transform:rotate(-180deg);transform:rotate(-180deg)}to{-webkit-transform:rotate(-360deg);transform:rotate(-360deg)}}.gear-1{-webkit-animation-name:rotateAnim;animation-name:rotateAnim;-webkit-animation-duration:6s;animation-duration:6s;-webkit-transform-origin:29px 59px;-ms-transform-origin:29px 59px;transform-origin:29px 59px}.gear-2{-webkit-animation-name:rotateReverseAnim;animation-name:rotateReverseAnim;-webkit-animation-duration:8s;animation-duration:8s;-webkit-transform-origin:60px 31px;-ms-transform-origin:60px 31px;transform-origin:60px 31px}.gear-3,.gear-4,.gear-5,.gear-inner-1{-webkit-animation-name:rotateAnim;animation-name:rotateAnim;-webkit-animation-duration:6s;animation-duration:6s;-webkit-transform-origin:99px 60px;-ms-transform-origin:99px 60px;transform-origin:99px 60px}.gear-4,.gear-5,.gear-inner-1{-webkit-transform-origin:104px 28px;-ms-transform-origin:104px 28px;transform-origin:104px 28px}.gear-5,.gear-inner-1{-webkit-animation-name:rotateReverseAnim;animation-name:rotateReverseAnim;-webkit-transform-origin:151.5px 55.5px;-ms-transform-origin:151.5px 55.5px;transform-origin:151.5px 55.5px}.gear-inner-1{-webkit-animation-duration:8s;animation-duration:8s;-webkit-transform-origin:49px 39px;-ms-transform-origin:49px 39px;transform-origin:49px 39px}</style></defs><circle cx="133" cy="61.5" r="3.5" class="cls-1"/><path d="M61.5 20.5a4.5 4.5 0 1 1 0-9 4.5 4.5 0 0 1 0 9zm0-8a3.5 3.5 0 1 0 0 7 3.5 3.5 0 0 0 0-7zm0 4a.5.5 0 1 1 0-1 .5.5 0 0 1 0 1z" class="cls-2"/><circle cx="4" cy="46.5" r="3.5" class="cls-1"/><path d="M134.43 15.31l2.07.69h-2c0 .85-.191 1.648-.511 2.377L135.428 20l-1.748-1.009a6.007 6.007 0 0 1-1.619 1.792l.439 2.145-1.019-1.764c-.69.397-1.461.67-2.291.766L128.5 24v-2c-.85 0-1.648-.191-2.377-.511l-1.623 1.439 1.009-1.748a6.007 6.007 0 0 1-1.792-1.619l-2.145.439 1.764-1.019a5.958 5.958 0 0 1-.766-2.291L120.5 16h2c0-.85.191-1.648.511-2.377L121.572 12l1.748 1.009a6.007 6.007 0 0 1 1.619-1.792l-.439-2.145 1.019 1.764a5.958 5.958 0 0 1 2.291-.766L128.5 8v2c.85 0 1.648.191 2.377.511l1.623-1.439-1.009 1.748a6.007 6.007 0 0 1 1.792 1.619l2.145-.439-1.764 1.019c.397.69.67 1.461.766 2.291z" class="cls-3"/><path d="M30.884 19.932l1.704.568h-1.647c0 .7-.157 1.357-.421 1.958l1.186 1.336-1.44-.831a4.958 4.958 0 0 1-1.337 1.46l.365 1.783-.848-1.469c-.568.327-1.194.568-1.878.647L26 27.088v-1.647c-.7 0-1.357-.157-1.958-.421l-1.336 1.186.831-1.44a4.958 4.958 0 0 1-1.46-1.337l-1.783.365 1.469-.848c-.327-.568-.568-1.194-.647-1.878l-1.704-.568h1.647c0-.7.157-1.357.421-1.958l-1.186-1.336 1.44.831a4.958 4.958 0 0 1 1.337-1.46l-.365-1.783.848 1.469c.568-.327 1.194-.568 1.878-.647L26 13.912v1.647c.7 0 1.357.157 1.958.421l1.336-1.186-.831 1.44a4.958 4.958 0 0 1 1.46 1.337l1.783-.365-1.469.848c.327.568.568 1.194.647 1.878z" class="cls-2"/><path d="M27.43 36.31l2.07.69h-2c0 .85-.191 1.648-.511 2.377L28.428 41l-1.748-1.009a6.007 6.007 0 0 1-1.619 1.792l.439 2.145-1.019-1.764c-.69.397-1.461.67-2.291.766L21.5 45v-2c-.85 0-1.648-.191-2.377-.511L17.5 43.928l1.009-1.748a6.007 6.007 0 0 1-1.792-1.619L14.572 41l1.764-1.019a5.958 5.958 0 0 1-.766-2.291L13.5 37h2c0-.85.191-1.648.511-2.377L14.572 33l1.748 1.009a6.007 6.007 0 0 1 1.619-1.792l-.439-2.145 1.019 1.764a5.958 5.958 0 0 1 2.291-.766L21.5 29v2c.85 0 1.648.191 2.377.511l1.623-1.439-1.009 1.748a6.007 6.007 0 0 1 1.792 1.619L28.428 33l-1.764 1.019c.397.69.67 1.461.766 2.291z" class="cls-3"/><path d="M121.5 52a6 6 0 1 1 0-12 6 6 0 0 1 0 12zm0-7a1 1 0 1 0 0 2 1 1 0 0 0 0-2z" class="cls-4"/><path class="gear-m gear-inner-1 cls-5" d="M56.5 39l-2 1v-2l2 1zm-8 6a6 6 0 1 1 0-12 6 6 0 0 1 0 12zm0-7a1 1 0 1 0 0 2 1 1 0 0 0 0-2zm0 9l-1-2h2l-1 2zm-8-8l2-1v2l-2-1zm8-8l1 2h-2l1-2zm3.536 3.05l2.121-.707-.707 2.121-1.414-1.414zm-9.193-.707l2.121.707-1.414 1.414-.707-2.121zm2.121 10.607l-2.121.707.707-2.121 1.414 1.414zm9.193.707l-2.121-.707 1.414-1.414.707 2.121z"/><path class="gear-m gear-4 cls-4" d="M111.66 22.134L115.624 21l-2.964 2.866-1-1.732zM117.5 28l-4 1v-2l4 1zm-14 10c-5.523 0-10-4.477-10-10s4.477-10 10-10 10 4.477 10 10-4.477 10-10 10zm0 4l-1-4h2l-1 4zm-14-14l4-1v2l-4-1zm14-14l1 4h-2l1-4zm4.134 4.84l2.866-2.964-1.134 3.964-1.732-1zM96.5 15.876l2.866 2.964-1.732 1-1.134-3.964zM91.376 21l3.964 1.134-1 1.732L91.376 21zm3.964 12.866L91.376 35l2.964-2.866 1 1.732zm4.026 3.294L96.5 40.124l1.134-3.964 1.732 1zm11.134 2.964l-2.866-2.964 1.732-1 1.134 3.964zM115.624 35l-3.964-1.134 1-1.732L115.624 35z"/><path class="gear-m gear-1 cls-4" d="M42.5 59l-4 1v-2l4 1zm-14 10c-5.523 0-10-4.477-10-10s4.477-10 10-10 10 4.477 10 10-4.477 10-10 10zm0 4l-1-4h2l-1 4zm-14-14l4-1v2l-4-1zm14-14l1 4h-2l1-4zm6.364 6.222l3.535-2.121-2.121 3.535-1.414-1.414zm-16.263-2.121l3.535 2.121-1.414 1.414-2.121-3.535zm3.535 17.677l-3.535 2.121 2.121-3.535 1.414 1.414zm16.263 2.121l-3.535-2.121 1.414-1.414 2.121 3.535z"/><path class="gear-m gear-3 cls-4" d="M107.526 53.634l3.098-.634-2.098 2.366-1-1.732zM112.5 60l-3 1v-2l3 1zm-14 11c-6.075 0-11-4.925-11-11s4.925-11 11-11 11 4.925 11 11-4.925 11-11 11zm0-12a1 1 0 1 0 0 2 1 1 0 0 0 0-2zm0 15l-1-3h2l-1 3zm-14-14l3-1v2l-3-1zm14-14l1 3h-2l1-3zm4.634 3.974l2.366-2.098-.634 3.098-1.732-1zM91.5 47.876l2.366 2.098-1.732 1-.634-3.098zM86.376 53l3.098.634-1 1.732L86.376 53zm3.098 13.366L86.376 67l2.098-2.366 1 1.732zm4.392 3.66L91.5 72.124l.634-3.098 1.732 1zm11.634 2.098l-2.366-2.098 1.732-1 .634 3.098zM110.624 67l-3.098-.634 1-1.732L110.624 67z"/><path class="gear-m gear-2 cls-4" d="M79.785 18.134l4.83-1.634-3.83 3.366-1-1.732zM88.5 31l-5 1v-2l5 1zm-29 24c-13.255 0-24-10.745-24-24s10.745-24 24-24 24 10.745 24 24-10.745 24-24 24zm0-27a3 3 0 1 0 0 6 3 3 0 0 0 0-6zm0 32l-1-5h2l-1 5zm-29-29l5-1v2l-5-1zm29-29l1 5h-2l1-5zm11.134 7.715L74 5.885l-1.634 4.83-1.732-1zM45 5.885l3.366 3.83-1.732 1L45 5.885zM34.385 16.5l4.83 1.634-1 1.732-3.83-3.366zm4.83 27.366l-4.83 1.634 3.83-3.366 1 1.732zm9.151 8.419L45 56.115l1.634-4.83 1.732 1zM74 56.115l-3.366-3.83 1.732-1L74 56.115zM84.615 45.5l-4.83-1.634 1-1.732 3.83 3.366z"/></svg>