<svg xmlns="http://www.w3.org/2000/svg" preserveAspectRatio="xMidYMid" width="456" height="220" viewBox="0 0 456 220"><defs><style>.cls-1,.cls-2,.cls-4{stroke:#c0c9d3}.cls-1,.cls-2,.cls-3,.cls-4,.cls-6{stroke-linecap:round;stroke-linejoin:round;fill:none}.cls-1,.cls-2,.cls-6{stroke-width:3px}.cls-1{stroke-dasharray:8,4;opacity:.2}.cls-1,.cls-2,.cls-3,.cls-6{fill-rule:evenodd}.cls-3,.cls-6{stroke:#cae0f6}.cls-3,.cls-4{stroke-width:1.5px}.cls-5{fill:#f7f8fa}.cloud{stroke-dasharray:.001,4}.gear-m{-webkit-animation-timing-function:linear;animation-timing-function:linear;-webkit-animation-iteration-count:infinite;animation-iteration-count:infinite;-webkit-animation-direction:normal;animation-direction:normal;-webkit-animation-play-state:running;animation-play-state:running;-webkit-animation-fill-mode:forwards;animation-fill-mode:forwards}@-webkit-keyframes rotateAnim{0%{-webkit-transform:rotate(0deg);transform:rotate(0deg)}50%{-webkit-transform:rotate(180deg);transform:rotate(180deg)}to{-webkit-transform:rotate(360deg);transform:rotate(360deg)}}@keyframes rotateAnim{0%{-webkit-transform:rotate(0deg);transform:rotate(0deg)}50%{-webkit-transform:rotate(180deg);transform:rotate(180deg)}to{-webkit-transform:rotate(360deg);transform:rotate(360deg)}}@-webkit-keyframes rotateReverseAnim{0%{-webkit-transform:rotate(0deg);transform:rotate(0deg)}50%{-webkit-transform:rotate(-180deg);transform:rotate(-180deg)}to{-webkit-transform:rotate(-360deg);transform:rotate(-360deg)}}@keyframes rotateReverseAnim{0%{-webkit-transform:rotate(0deg);transform:rotate(0deg)}50%{-webkit-transform:rotate(-180deg);transform:rotate(-180deg)}to{-webkit-transform:rotate(-360deg);transform:rotate(-360deg)}}.gear-1{-webkit-animation-name:rotateAnim;animation-name:rotateAnim;-webkit-animation-duration:10s;animation-duration:10s;-webkit-transform-origin:111px 146px;-ms-transform-origin:111px 146px;transform-origin:111px 146px}.gear-2{-webkit-animation-name:rotateReverseAnim;animation-name:rotateReverseAnim;-webkit-animation-duration:12.075471698113208s;animation-duration:12.075471698113208s;-webkit-transform-origin:176px 81px;-ms-transform-origin:176px 81px;transform-origin:176px 81px}.gear-3,.gear-4{-webkit-animation-name:rotateAnim;animation-name:rotateAnim;-webkit-animation-duration:6.60377358490566s;animation-duration:6.60377358490566s;-webkit-transform-origin:230px 165px;-ms-transform-origin:230px 165px;transform-origin:230px 165px}.gear-4{-webkit-animation-duration:7.483018867924528s;animation-duration:7.483018867924528s;-webkit-transform-origin:279px 91px;-ms-transform-origin:279px 91px;transform-origin:279px 91px}.gear-5,.gear-inner-1{-webkit-animation-name:rotateReverseAnim;animation-name:rotateReverseAnim;-webkit-animation-duration:9.433962264150944s;animation-duration:9.433962264150944s;-webkit-transform-origin:318px 141px;-ms-transform-origin:318px 141px;transform-origin:318px 141px}.gear-inner-1{-webkit-animation-duration:7.483018867924528s;animation-duration:7.483018867924528s;-webkit-transform-origin:293px 77px;-ms-transform-origin:293px 77px;transform-origin:293px 77px}</style></defs><path class="cls-1 cloud" d="M317 218H112c-39.765 0-72-32.235-72-72 0-35.039 25.033-64.218 58.187-70.662C100.848 34.393 134.882 2 176.5 2c29.889 0 55.872 16.707 69.131 41.289A54.745 54.745 0 0 1 279 32c22.555 0 41.929 13.583 50.415 33.01C366.036 70.949 394 102.702 394 141c0 42.526-34.474 77-77 77z"/><path class="cls-2 gear-m gear-3" d="M261.034 157.181c.016.073.033.147.051.22.093.382.186.763.265 1.15.036.175.061.353.094.528.065.348.134.696.187 1.048.035.228.058.461.088.691.04.303.085.605.116.91.031.305.047.614.07.921.017.235.041.468.053.704a32.154 32.154 0 0 1 0 3.294c-.012.234-.036.465-.053.698-.022.309-.039.62-.07.927-.031.304-.076.604-.115.906-.031.231-.054.465-.089.695-.053.352-.121.698-.186 1.046-.033.176-.059.355-.095.53-.079.386-.172.768-.265 1.149a7.89 7.89 0 0 0-.051.221l.134-.503 2.639 1.743-3.156.189.224-.838c-.076.275-.151.551-.233.823-.029.094-.052.189-.08.282a33.84 33.84 0 0 1-.441 1.304c-.022.06-.04.122-.062.183-.167.456-.347.906-.534 1.352-.013.033-.025.068-.039.101-.198.466-.406.927-.625 1.382l-.016.035a31.978 31.978 0 0 1-1.226 2.29l.594-1.028 2.098 2.366-3.098-.634.316-.548a32.136 32.136 0 0 1-4.9 6.308l.705-.706 1.415 2.829-2.829-1.415.706-.705h-.001a32.093 32.093 0 0 1-6.306 4.9l.547-.316.634 3.098-2.366-2.098 1.026-.593a31.71 31.71 0 0 1-2.288 1.225l-.038.017a31.72 31.72 0 0 1-1.379.624l-.102.04c-.446.187-.896.366-1.351.533-.061.022-.123.04-.183.061a32.22 32.22 0 0 1-1.304.442c-.093.029-.189.052-.282.08-.274.082-.55.157-.826.234l.841-.225-.189 3.156-1.743-2.639.504-.134a8.1 8.1 0 0 0-.224.051c-.381.093-.761.186-1.147.265-.177.036-.357.062-.535.096-.346.064-.691.132-1.041.185-.231.036-.466.059-.698.089-.301.039-.6.084-.903.115-.309.031-.621.048-.932.071-.231.016-.461.041-.693.052a32.154 32.154 0 0 1-9.468-.925l.512.138-1.75 2.636-.197-3.158.85.227c-10.984-2.983-19.615-11.668-22.527-22.68l.284 1.06-3.158-.197 2.636-1.75.159.59a32.035 32.035 0 0 1-.946-9.546c.012-.248.038-.492.056-.738.022-.296.037-.593.067-.887.032-.308.077-.613.117-.919.03-.227.052-.456.087-.682.054-.355.123-.706.188-1.057.033-.172.058-.347.093-.519.079-.383.171-.761.263-1.139.019-.077.036-.155.054-.232l-.138.511-2.636-1.75 3.158-.197-.227.849c.077-.277.153-.555.235-.829.028-.093.051-.187.08-.28.136-.437.285-.868.438-1.297.023-.062.042-.127.065-.19.168-.459.348-.912.537-1.361.012-.03.023-.062.036-.092.196-.465.405-.923.622-1.377l.019-.04a31.55 31.55 0 0 1 1.225-2.289l-.598 1.035-2.094-2.373 3.102.627-.319.553a32.13 32.13 0 0 1 4.9-6.307l-.712.712-1.409-2.834 2.834 1.409-.712.712h.001a32.093 32.093 0 0 1 6.306-4.9l-.553.319-.627-3.102 2.373 2.094-1.034.597a31.923 31.923 0 0 1 2.288-1.225l.042-.019c.453-.217.911-.425 1.375-.621.032-.014.064-.025.095-.038.448-.188.9-.368 1.358-.535.057-.021.115-.038.171-.058a31.29 31.29 0 0 1 1.316-.445c.086-.027.175-.048.261-.075.28-.084.562-.161.844-.239l-.845.226.197-3.158 1.75 2.637-.51.136a7.89 7.89 0 0 0 .221-.051c.381-.093.762-.186 1.149-.265.176-.036.355-.062.532-.095.347-.065.693-.133 1.044-.186.24-.037.485-.061.727-.093.291-.037.581-.081.874-.111.294-.03.591-.045.887-.067.246-.018.49-.044.738-.056a32.154 32.154 0 0 1 3.294 0c.235.012.466.036.7.053.309.022.619.039.925.07.303.031.602.076.902.115.233.03.468.053.699.089.35.053.695.121 1.042.186.177.033.357.059.534.095.387.079.769.173 1.151.266.073.018.146.034.22.05l-.504-.134 1.743-2.639.189 3.156-.841-.225c.277.077.555.153.829.235.093.028.187.051.279.079.44.137.875.287 1.307.442.059.022.12.04.18.061.457.168.907.347 1.354.534.032.014.066.026.099.039.466.198.927.406 1.382.625l.035.016c.782.377 1.544.788 2.289 1.225l-1.027-.593 2.366-2.098-.634 3.098-.547-.316a32.13 32.13 0 0 1 6.307 4.9l-.706-.706 2.829-1.414-1.415 2.829-.705-.706a32.106 32.106 0 0 1 4.9 6.308l-.316-.548 3.098-.634-2.098 2.366-.594-1.028c.437.745.849 1.507 1.226 2.29l.016.036c.219.455.427.915.625 1.381.014.033.025.067.039.101.187.446.367.896.534 1.352.021.06.039.122.061.182.155.431.305.865.442 1.305.028.092.051.186.079.278.082.274.158.551.235.828l-.225-.839 3.156.189-2.639 1.743-.134-.503zM230 142c-12.703 0-23 10.298-23 23 0 12.703 10.297 23 23 23s23-10.297 23-23c0-12.702-10.297-23-23-23zm0 30a7 7 0 1 1 0-14 7 7 0 0 1 0 14zm35-7l-3 1v-2l3 1zm-33.976 32l-1.008 3-.008-.023L230 200l-1.008-3h2.032zM195 165l3-1.008v2.016L195 165zm35-35l1 3h-2l1-3zm-27.209 51.873l-3.102.627 2.094-2.373 1.008 1.746zm5.294 6.467l-2.834 1.409 1.409-2.834 1.425 1.425zm6.788 4.877l-2.373 2.094.627-3.102 1.746 1.008z"/><path d="M37.431 159.81l2.069.69h-2c0 .85-.191 1.648-.511 2.377l1.439 1.623-1.748-1.009a6.007 6.007 0 0 1-1.619 1.792l.439 2.145-1.019-1.764c-.69.397-1.461.67-2.291.766l-.69 2.07v-2c-.85 0-1.648-.191-2.377-.511l-1.623 1.439 1.009-1.748a6.007 6.007 0 0 1-1.792-1.619l-2.145.439 1.764-1.019a5.976 5.976 0 0 1-.767-2.291l-2.069-.69h2c0-.85.191-1.648.511-2.377l-1.439-1.623 1.748 1.009a6.007 6.007 0 0 1 1.619-1.792l-.439-2.145 1.019 1.764a5.958 5.958 0 0 1 2.291-.766l.69-2.07v2c.85 0 1.648.191 2.377.511l1.623-1.439-1.009 1.748a6.007 6.007 0 0 1 1.792 1.619l2.145-.439-1.764 1.019c.397.69.67 1.461.767 2.291z" class="cls-3"/><path d="M428.892 146.134l3.098-.634-2.098 2.366-1-1.732zM434 153l-3 1v-2l3 1zm-15 12c-6.627 0-12-5.373-12-12s5.373-12 12-12 12 5.373 12 12-5.373 12-12 12zm0-14a2 2 0 1 0-.001 3.999A2 2 0 0 0 419 151zm0 17l-1-3h2l-1 3zm-15-15l3-1v2l-3-1zm15-15l1 3h-2l1-3zm5.134 4.108l2.366-2.098-.634 3.098-1.732-1zM411.5 140.01l2.366 2.098-1.732 1-.634-3.098zm-5.49 5.49l3.098.634-1 1.732-2.098-2.366zm3.098 14.366l-3.098.634 2.098-2.366 1 1.732zm4.758 4.026l-2.366 2.098.634-3.098 1.732 1zm12.634 2.098l-2.366-2.098 1.732-1 .634 3.098zm5.49-5.49l-3.098-.634 1-1.732 2.098 2.366zM26 141l-3 1v-2l3 1zm-4.929 5.657l1.414 2.828-2.828-1.414.706-.706A8.973 8.973 0 0 1 14 150a8.972 8.972 0 0 1-6.364-2.636l.707.707-2.828 1.414 1.414-2.828.707.707A8.972 8.972 0 0 1 5 141a8.972 8.972 0 0 1 2.636-6.364l-.707.707-1.414-2.828 2.828 1.414-.707.707A8.972 8.972 0 0 1 14 132a8.973 8.973 0 0 1 6.363 2.635l-.706-.706 2.828-1.414-1.414 2.828-.706-.706A8.973 8.973 0 0 1 23 141a8.973 8.973 0 0 1-2.635 6.363l.706-.706zM14 153l-1-3h2l-1 3zM2 141l3-1v2l-3-1zm12-12l1 3h-2l1-3zM448.49 112.634l3.098-.634-2.098 2.366-1-1.732zM454 121l-3 1v-2l3 1zm-18 15c-8.284 0-15-6.716-15-15 0-8.284 6.716-15 15-15 8.284 0 15 6.716 15 15 0 8.284-6.716 15-15 15zm0-22a7 7 0 1 0 0 14 7 7 0 0 0 0-14zm0 25l-1-3h2l-1 3zm-18-18l3-1v2l-3-1zm18-18l1 3h-2l1-3zm6.634 4.51l2.366-2.098-.634 3.098-1.732-1zM427 105.412l2.366 2.098-1.732 1-.634-3.098zM420.412 112l3.098.634-1 1.732-2.098-2.366zm3.098 17.366l-3.098.634 2.098-2.366 1 1.732zm5.856 5.124L427 136.588l.634-3.098 1.732 1zM445 136.588l-2.366-2.098 1.732-1 .634 3.098zm6.588-6.588l-3.098-.634 1-1.732 2.098 2.366z" class="cls-2"/><circle cx="405" cy="127" r="7" class="cls-4"/><circle cx="110" cy="145" r="60" class="cls-5"/><path class="gear-m gear-5 cls-6" d="M360.618 123.684A45.86 45.86 0 0 1 364 141a45.858 45.858 0 0 1-3.384 17.32l.265-.64 3.319 2.44-4.072-.621.119-.288a46.16 46.16 0 0 1-24.034 24.035l.314-.13.621 4.072-2.44-3.319.614-.254A45.85 45.85 0 0 1 318 187a45.841 45.841 0 0 1-17.324-3.386l.666.276-2.462 3.31.6-4.081.309.128a46.157 46.157 0 0 1-24.035-24.034l.139.336-4.081.6 3.31-2.462.263.634A45.849 45.849 0 0 1 272 141a45.85 45.85 0 0 1 3.385-17.322l-.263.635-3.316-2.447 4.075.614-.128.309a46.159 46.159 0 0 1 24.036-24.036l-.309.128-.614-4.075 2.447 3.316-.634.263A45.845 45.845 0 0 1 318 95c6.13 0 11.975 1.209 17.323 3.385l-.643-.266 2.454-3.313-.607 4.078-.315-.13a46.087 46.087 0 0 1 14.314 9.718l-.706-.706 3.535-2.121-2.121 3.535-.706-.706a46.095 46.095 0 0 1 9.717 14.31l-.129-.311 4.078-.607-3.313 2.454-.263-.636zM318 119c-12.15 0-22 9.85-22 22s9.85 22 22 22 22-9.85 22-22-9.85-22-22-22zm50 21.985l-4 .984V140l4 .985zM318.016 191l-1.008-4h2.016l-1.008 4zM268 141l4-.992v1.984l-4-.992zm50-50l1 4h-2l1-4zm-35.355 14.645l3.53 2.126-1.404 1.404-2.126-3.53zm3.552 68.606l-3.541 2.115 2.116-3.541 1.425 1.426zm67.169 2.093l-3.524-2.132 1.392-1.392 2.132 3.524z"/><circle cx="278" cy="90" r="45" class="cls-5"/><path class="cls-2 gear-m gear-4" d="M312.865 82.156c.28 1.069.51 2.154.688 3.255.009.055.015.111.024.166.077.493.147.988.203 1.487.023.203.039.405.058.608.033.344.066.688.089 1.035.023.358.036.715.049 1.072.006.192.017.384.02.577.01.513.006 1.025-.007 1.536l-.002.132a34.914 34.914 0 0 1-.255 3.308l.098-.748 4.83 1.622-5.085.316.06-.453a35.044 35.044 0 0 1-1.029 4.729 34.747 34.747 0 0 1-3.179 7.501l.38-.659 3.842 3.347-4.819-1.654.23-.398a34.938 34.938 0 0 1-2.413 3.522c-.068.088-.135.179-.204.267-.219.276-.447.545-.674.815-.151.18-.3.363-.456.54-.151.172-.307.338-.461.507-.242.265-.484.531-.735.79-.073.075-.149.147-.222.221a34.873 34.873 0 0 1-3.189 2.864l.388-.298 2.269 4.562-3.819-3.372.575-.442a34.773 34.773 0 0 1-11.579 5.767l.508-.135.32 5.09-2.268-4.569.737-.197a34.581 34.581 0 0 1-3.25.686c-.052.009-.103.015-.155.023-.496.078-.995.147-1.498.204-.2.023-.399.038-.599.058-.347.033-.694.066-1.044.089-.355.023-.71.036-1.064.048-.195.007-.389.018-.584.021-.512.01-1.022.006-1.53-.007l-.138-.002a34.893 34.893 0 0 1-3.307-.255l.779.102-1.652 4.826-.347-5.089.485.064a34.992 34.992 0 0 1-4.73-1.029 34.726 34.726 0 0 1-7.502-3.179l.685.396-3.372 3.826 1.627-4.834.424.245a35.006 35.006 0 0 1-3.525-2.416c-.088-.067-.177-.132-.263-.2a33.456 33.456 0 0 1-.819-.678c-.179-.15-.36-.298-.536-.452-.173-.152-.341-.31-.511-.465-.264-.241-.529-.482-.786-.731-.076-.074-.15-.152-.226-.227a34.796 34.796 0 0 1-2.86-3.185l.317.413-4.581 2.244 3.354-3.843.461.601a34.765 34.765 0 0 1-5.768-11.579l.127.475-5.086.336 4.573-2.253.197.738a34.902 34.902 0 0 1-.686-3.25l-.024-.161a34.918 34.918 0 0 1-.203-1.491c-.023-.203-.039-.404-.058-.606-.033-.345-.066-.69-.088-1.037-.024-.358-.037-.716-.05-1.073-.006-.192-.016-.383-.02-.575-.01-.515-.006-1.028.007-1.54l.002-.128c.032-1.111.118-2.213.255-3.305l-.098.744-4.828-1.637 5.087-.331-.063.48a34.863 34.863 0 0 1 4.21-12.233l-.383.664L244.359 71l4.826 1.641-.247.428a34.617 34.617 0 0 1 2.411-3.52c.07-.091.138-.184.209-.275.218-.274.443-.541.669-.808.153-.182.304-.367.461-.546.149-.17.304-.334.456-.501.244-.268.488-.535.74-.796.071-.073.145-.144.217-.216a34.81 34.81 0 0 1 3.192-2.867l-.387.297-2.257-4.571 3.831 3.363-.599.459a34.77 34.77 0 0 1 11.579-5.766l-.477.127-.336-5.086 2.253 4.573-.738.197a34.855 34.855 0 0 1 3.251-.686c.052-.009.105-.015.157-.023.496-.078.994-.148 1.495-.204.201-.023.402-.038.602-.058.347-.033.693-.066 1.041-.089.357-.023.713-.036 1.069-.049.193-.006.385-.017.579-.02.513-.01 1.025-.006 1.535.007l.133.002c1.111.032 2.213.118 3.305.255l-.745-.098 1.637-4.828.331 5.087-.481-.063c1.605.235 3.185.577 4.728 1.029a34.724 34.724 0 0 1 7.504 3.18l-.662-.382L299 56.359l-1.641 4.826-.427-.246a34.684 34.684 0 0 1 3.518 2.409c.092.071.185.139.276.21.273.218.54.443.807.668.183.153.368.305.548.462.169.149.333.303.499.455.268.244.536.489.797.741.073.071.143.144.215.215a35.105 35.105 0 0 1 2.867 3.192l-.296-.385 4.571-2.257-3.363 3.832-.457-.597a34.758 34.758 0 0 1 5.765 11.578l-.128-.479 5.082-.351-4.577 2.238-.191-.714zm-28.997 7.783c-.018-.08-.021-.164-.042-.243a5.091 5.091 0 0 0-.352-.929c-.065-.129-.153-.242-.228-.364-.094-.153-.178-.314-.287-.455-.107-.138-.237-.257-.358-.384-.102-.107-.194-.225-.305-.322-.112-.098-.242-.175-.363-.264-.141-.102-.274-.215-.424-.302-.157-.091-.33-.155-.497-.229-.128-.056-.249-.128-.382-.174a5.012 5.012 0 0 0-.967-.228c-.08-.01-.163-.002-.243-.009a4.933 4.933 0 0 0-.747-.023c-.244.016-.49.066-.736.12-.079.017-.163.02-.241.041a5.019 5.019 0 0 0-.929.352c-.134.067-.252.159-.379.237-.148.091-.303.172-.439.277-.142.109-.263.242-.392.365-.104.1-.22.19-.315.299-.1.114-.179.247-.269.371-.1.138-.211.268-.296.416-.094.161-.161.34-.237.514-.054.122-.123.237-.167.364a5.04 5.04 0 0 0-.228.968c-.01.079-.002.161-.009.241a4.959 4.959 0 0 0-.023.749c.016.243.066.488.119.733.018.08.021.165.042.244.088.327.207.637.352.929.066.131.156.247.232.371.093.151.176.309.283.448.107.139.238.259.36.386.101.107.193.224.303.32.113.099.244.176.365.265.14.102.273.214.422.301.157.091.331.156.5.23.127.056.247.127.378.173.309.106.632.183.968.228.079.01.162.002.242.009.251.022.503.039.748.023s.491-.066.737-.12c.079-.017.162-.02.24-.041.327-.088.637-.207.929-.352.131-.066.246-.155.37-.231.151-.093.31-.176.449-.284.139-.107.259-.238.387-.361.106-.101.223-.192.319-.302.099-.113.177-.245.266-.367.101-.139.213-.271.3-.42.092-.159.158-.335.232-.505.056-.125.126-.244.171-.373a5.04 5.04 0 0 0 .228-.968c.01-.078.002-.16.009-.239.022-.252.039-.505.023-.751a5.075 5.075 0 0 0-.119-.734z"/><path class="cls-6 gear-m gear-2" d="M239.452 72.646l-5.818 1.775-.079-.601a58.266 58.266 0 0 1 0 14.36l.079-.601 5.82 1.759-6.077.193.165-1.253a58.227 58.227 0 0 1-1.293 6.894l.033-.126 5.541 2.504-6.05-.602.189-.706a57.549 57.549 0 0 1-2.476 7.193l.482-1.163 5.166 3.206-5.92-1.387.262-.632a58.176 58.176 0 0 1-31.018 31.017l.662-.274 1.386 5.92-3.206-5.166 1.136-.47a57.522 57.522 0 0 1-7.195 2.476l.737-.197.601 6.05-2.504-5.54.098-.027c-2.249.565-4.55.999-6.894 1.294l1.283-.169-.193 6.077-1.759-5.82.571-.075a58.283 58.283 0 0 1-14.363 0l.626.082-1.782 5.818-.216-6.081 1.277.168a58.06 58.06 0 0 1-6.896-1.294l.15.041-2.526 5.534.579-6.056.727.195a57.843 57.843 0 0 1-7.127-2.449l1.12.464-3.227 5.157 1.365-5.929.602.25a57.952 57.952 0 0 1-6.622-3.302l-.111-.064a57.95 57.95 0 0 1-6.148-4.138l.895.687-4.452 4.146 2.853-5.373.676.519a58.186 58.186 0 0 1-5.592-4.917l.723.723-4.956 3.53 3.53-4.955.7.7a58.204 58.204 0 0 1-4.916-5.593l.539.702-5.374 2.853 4.147-4.452.668.871a57.87 57.87 0 0 1-4.139-6.149l-.063-.109a58.02 58.02 0 0 1-3.302-6.621l.261.628-5.929 1.365 5.157-3.227.452 1.09a57.738 57.738 0 0 1-2.448-7.124l.202.755-6.056.58 5.534-2.527.033.121a58.027 58.027 0 0 1-1.294-6.894l.172 1.305-6.08-.216 5.817-1.782.078.593a58.059 58.059 0 0 1 0-14.359l-.078.593-5.819-1.768 6.078-.2-.168 1.274a58.194 58.194 0 0 1 1.293-6.892l-.032.119-5.538-2.511 6.052.594-.195.728a57.843 57.843 0 0 1 2.449-7.127l-.452 1.09-5.163-3.213 5.923 1.38-.25.602a57.966 57.966 0 0 1 3.302-6.623l.064-.11a57.87 57.87 0 0 1 4.139-6.149l-.669.871-4.156-4.44 5.364 2.866-.519.676a58.087 58.087 0 0 1 4.918-5.593l-.702.702-3.541-4.945 4.944 3.541-.701.702a58.077 58.077 0 0 1 5.593-4.917l-.677.519-2.865-5.365 4.44 4.157-.869.666a57.963 57.963 0 0 1 6.149-4.138l.11-.064a58.048 58.048 0 0 1 6.623-3.302l-.605.251-1.379-5.923 3.213 5.163-1.085.45a57.725 57.725 0 0 1 7.127-2.448l-.733.196-.595-6.052 2.512 5.538-.123.033a58.06 58.06 0 0 1 6.896-1.294l-1.275.168.201-6.078 1.767 5.819-.595.078a58.299 58.299 0 0 1 14.363 0l-.602-.079 1.775-5.819.208 6.08-1.282-.169a58.08 58.08 0 0 1 6.895 1.294l-.129-.035 2.518-5.536-.586 6.054-.738-.197c2.468.67 4.87 1.5 7.195 2.476l-1.163-.482 3.22-5.16-1.372 5.926-.662-.275a58.185 58.185 0 0 1 31.019 31.019l-.275-.662 5.926-1.372-5.16 3.22-.481-1.161a57.614 57.614 0 0 1 2.476 7.194l-.198-.738 6.054-.587-5.537 2.518-.033-.126c.564 2.249.998 4.55 1.293 6.893l-.169-1.283 6.079.208zM176 50c-17.121 0-31 13.879-31 31 0 17.121 13.879 31 31 31 17.121 0 31-13.879 31-31 0-17.121-13.879-31-31-31zm0 36a5 5 0 1 1 .001-10.001A5 5 0 0 1 176 86zm64-5.015l-6 .984V80l6 .985zM176.016 145l-1.008-6h2.016l-1.008 6zm-28.129-13.259l-3.873 4.693 2.127-5.701.616.356.111.064 1.019.588zm-21.605-20.854l-5.7 2.127 4.692-3.873.574.993.063.109.371.644zM112 81l6-.992V81.993L112 81zm13.274-28.14l-4.7-3.86 5.693 2.141-.356.616-.064.11-.573.993zm20.867-21.593L144 25.574l3.859 4.7-.99.572a6.246 6.246 0 0 0-.11.064l-.618.357zM176 17l1 6h-2l1-6zm49.729 34.134L231.426 49l-4.697 3.866-1-1.732zm-4.323-6.236l5.369-2.859-4.152 4.446-1.217-1.587zm-5.101-5.617l4.95-3.536-3.536 4.95-1.414-1.414zm-5.79-4.904l4.446-4.152-2.86 5.369-1.586-1.217zm-6.381-4.107L208 25.574l-2.134 5.697-1.732-1.001zm3.879 106.148l-3.852-4.704 1.705-.985 2.147 5.689zm6.96-4.653l-4.434-4.16 1.562-1.199 2.872 5.359zm6.293-5.521l-4.939-3.546 1.392-1.393 3.547 4.939zm5.463-17.11l4.704 3.853-5.688-2.148.984-1.705zm.055 10.815l-5.36-2.872 1.199-1.562 4.161 4.434z"/><circle cx="110" cy="145" r="60" class="cls-5"/><path class="cls-2 gear-m gear-1" d="M158.497 133.925A49.095 49.095 0 0 1 160 146c0 4.159-.521 8.195-1.496 12.05l.09-.339 3.605 2.001-4.122-.069.261-.975c-4.453 16.672-17.477 29.839-34.067 34.498l.379-.101.084 4.118-1.986-3.609.057-.015A49.074 49.074 0 0 1 111 195c-4.235 0-8.339-.552-12.259-1.563l.548.147-1.987 3.609.085-4.118.287.076a48.744 48.744 0 0 1-10.68-4.438l.378.219-2.853 2.972 1.148-3.957 1.27.733a49.169 49.169 0 0 1-17.857-17.297l-3.967 1.127 2.96-2.873.562.974a48.851 48.851 0 0 1-4.832-11.444l.133.497-4.124.062 3.603-2.009.25.935A48.869 48.869 0 0 1 62 146c0-4.096.51-8.072 1.457-11.875l-.047.177-3.603-2.009 4.124.062-.074.276a48.752 48.752 0 0 1 4.626-10.983l-.424.735-2.96-2.873 3.968 1.127-.547.948a49.219 49.219 0 0 1 18.162-18.126l-1.037.598-1.14-3.96 2.859 2.968-.641.37a48.679 48.679 0 0 1 11.795-4.825l-1.157.31-.077-4.121 1.994 3.607-.422.113A49.107 49.107 0 0 1 111 97c4.192 0 8.26.529 12.143 1.519l-.414-.111 1.993-3.607-.076 4.121-1.162-.312a48.943 48.943 0 0 1 22.164 12.741l-.707-.706 3.536-2.122-2.122 3.536-.706-.707a48.952 48.952 0 0 1 12.696 22.006l-.272-1.013 4.123-.069-3.605 2.001-.094-.352zM111 104c-23.196 0-42 18.804-42 42s18.804 42 42 42 42-18.804 42-42-18.804-42-42-42zm0 52c-5.523 0-10-4.477-10-10s4.477-10 10-10 10 4.477 10 10-4.477 10-10 10zm53-10.015l-4 .984V145l4 .985zM111.016 199l-1.008-4h2.016l-1.008 4zM58 146l4-.992v1.984L58 146zm53-53l1 4h-2l1-4zm41.94 27.63l3.964-1.134-2.964 2.867-1-1.733zm-18.294-17.565l2.86-2.968-1.141 3.96-1.719-.992zm-61.123 5.458l3.53 2.127-1.403 1.404-2.127-3.531zm3.553 72.849l-3.542 2.116 2.116-3.541 1.426 1.425zm60.442 10.516l-2.853-2.972 1.706-.984 1.147 3.956zm10.97-8.422l-3.525-2.132 1.392-1.393 2.133 3.525zm8.417-10.969l-3.964-1.134 1-1.733 2.964 2.867z"/><path class="cls-3 gear-m gear-inner-1" d="M300.294 71.634l3.098-.634-2.098 2.366-1-1.732zM305 77l-3 1v-2l3 1zm-12 9a9 9 0 0 1-9-9 9 9 0 1 1 9 9zm0 3l-1-3h2l-1 3zm-12-12l3-1v2l-3-1zm12-12l1 3h-2l1-3zm3.634 3.706L299 66.608l-.634 3.098-1.732-1zM287 66.608l2.366 2.098-1.732 1-.634-3.098zM282.608 71l3.098.634-1 1.732L282.608 71zm3.098 11.366l-3.098.634 2.098-2.366 1 1.732zm3.66 2.928L287 87.392l.634-3.098 1.732 1zM299 87.392l-2.366-2.098 1.732-1 .634 3.098zM303.392 83l-3.098-.634 1-1.732L303.392 83z"/></svg>