<svg xmlns="http://www.w3.org/2000/svg" xmlns:xlink="http://www.w3.org/1999/xlink" preserveAspectRatio="xMidYMid" width="456" height="220" viewBox="0 0 456 220">
    <defs>
        <style>
            .cls-1, .cls-2, .cls-4 {
                stroke: #c0c9d3;
            }

            .cls-1, .cls-2, .cls-3, .cls-4, .cls-6 {
                stroke-linecap: round;
                stroke-linejoin: round;
                fill: none;
            }

            .cls-1, .cls-2, .cls-6 {
                stroke-width: 3px;
            }

            .cls-1 {
                stroke-dasharray: 8,4;
                opacity: 0.2;
            }

            .cls-1, .cls-2, .cls-3, .cls-6 {
                fill-rule: evenodd;
            }

            .cls-3, .cls-6 {
                stroke: #cae0f6;
            }

            .cls-3, .cls-4 {
                stroke-width: 1.5px;
            }

            .cls-5 {
                fill: #f7f8fa;
            }
            .cloud{
                stroke-dasharray: 0.001, 4;
            }
            .gear-m{
                animation-timing-function: linear;
                animation-iteration-count: infinite;
                animation-direction: normal;
                animation-play-state: running;
                animation-fill-mode: forwards;
            }
            @keyframes rotateAnim {
                0%{
                    transform: rotate(0deg);
                }
                50%{
                    transform: rotate(180deg);
                }
                100%{
                    transform: rotate(360deg);
                }
            }
            @keyframes rotateReverseAnim {
                0%{
                    transform: rotate(0deg);
                }
                50%{
                    transform: rotate(-180deg);
                }
                100%{
                    transform: rotate(-360deg);
                }
            }
            .gear-1{
                animation-name:rotateAnim;
                animation-duration: 10s;
                transform-origin:111px 146px;
            }
            .gear-2{
                animation-name:rotateReverseAnim;
                animation-duration: 12.075471698113208s;
                transform-origin:176px 81px;
            }
            .gear-3{
                animation-name:rotateAnim;
                animation-duration: 6.60377358490566s;
                transform-origin:230px 165px;

            }
            .gear-4{
                animation-name:rotateAnim;
                animation-duration: 7.483018867924528s;
                transform-origin:279px 91px;
            }
            .gear-5{
                animation-name:rotateReverseAnim;
                animation-duration: 9.433962264150944s;
                transform-origin:318px 141px;
            }
            .gear-inner-1{
                animation-name:rotateReverseAnim;
                animation-duration:7.483018867924528s;
                transform-origin:293px 77px;
            }


        </style>
    </defs>
    <g>
        <path  class="cls-1 cloud" d="M317.000,218.000 L112.000,218.000 C72.235,218.000 40.000,185.765 40.000,146.000 C40.000,110.961 65.033,81.782 98.187,75.338 C100.848,34.393 134.882,2.000 176.500,2.000 C206.389,2.000 232.372,18.707 245.631,43.289 C254.887,36.212 266.449,32.000 279.000,32.000 C301.555,32.000 320.929,45.583 329.415,65.010 C366.036,70.949 394.000,102.702 394.000,141.000 C394.000,183.526 359.526,218.000 317.000,218.000 Z"/>
        <path class="cls-2 gear-m gear-3" d="M261.034,157.181 C261.050,157.254 261.067,157.328 261.085,157.401 C261.178,157.783 261.271,158.164 261.350,158.551 C261.386,158.726 261.411,158.904 261.444,159.079 C261.509,159.427 261.578,159.775 261.631,160.127 C261.666,160.355 261.689,160.588 261.719,160.818 C261.759,161.121 261.804,161.423 261.835,161.728 C261.866,162.033 261.882,162.342 261.905,162.649 C261.922,162.884 261.946,163.117 261.958,163.353 C261.986,163.899 262.000,164.448 262.000,165.000 C262.000,165.552 261.986,166.101 261.958,166.647 C261.946,166.881 261.922,167.112 261.905,167.345 C261.883,167.654 261.866,167.965 261.835,168.272 C261.804,168.576 261.759,168.876 261.720,169.178 C261.689,169.409 261.666,169.643 261.631,169.873 C261.578,170.225 261.510,170.571 261.445,170.919 C261.412,171.095 261.386,171.274 261.350,171.449 C261.271,171.835 261.178,172.217 261.085,172.598 C261.067,172.671 261.050,172.745 261.034,172.819 L261.168,172.316 L263.807,174.059 L260.651,174.248 L260.875,173.410 C260.799,173.685 260.724,173.961 260.642,174.233 C260.613,174.327 260.590,174.422 260.562,174.515 C260.425,174.954 260.275,175.388 260.121,175.819 C260.099,175.879 260.081,175.941 260.059,176.002 C259.892,176.458 259.712,176.908 259.525,177.354 C259.512,177.387 259.500,177.422 259.486,177.455 C259.288,177.921 259.080,178.382 258.861,178.837 C258.855,178.848 258.851,178.860 258.845,178.872 C258.468,179.654 258.056,180.417 257.619,181.162 L258.213,180.134 L260.311,182.500 L257.213,181.866 L257.529,181.318 C256.160,183.622 254.513,185.742 252.629,187.626 L253.334,186.920 L254.749,189.749 L251.920,188.334 L252.626,187.629 C252.626,187.629 252.626,187.629 252.625,187.629 C250.742,189.513 248.623,191.160 246.319,192.529 L246.866,192.213 L247.500,195.311 L245.134,193.213 L246.160,192.620 C245.416,193.057 244.654,193.468 243.872,193.845 C243.860,193.851 243.847,193.856 243.834,193.862 C243.380,194.080 242.921,194.289 242.455,194.486 C242.421,194.500 242.386,194.512 242.353,194.526 C241.907,194.713 241.457,194.892 241.002,195.059 C240.941,195.081 240.879,195.099 240.819,195.120 C240.388,195.275 239.954,195.425 239.515,195.562 C239.422,195.591 239.326,195.614 239.233,195.642 C238.959,195.724 238.683,195.799 238.407,195.876 L239.248,195.651 L239.059,198.807 L237.316,196.168 L237.820,196.034 C237.745,196.050 237.670,196.067 237.596,196.085 C237.215,196.178 236.835,196.271 236.449,196.350 C236.272,196.386 236.092,196.412 235.914,196.446 C235.568,196.510 235.223,196.578 234.873,196.631 C234.642,196.667 234.407,196.690 234.175,196.720 C233.874,196.759 233.575,196.804 233.272,196.835 C232.963,196.866 232.651,196.883 232.340,196.906 C232.109,196.922 231.879,196.947 231.647,196.958 C231.101,196.986 230.552,197.000 230.000,197.000 C227.301,197.000 224.682,196.662 222.179,196.033 L222.691,196.171 L220.941,198.807 L220.744,195.649 L221.594,195.876 C210.610,192.893 201.979,184.208 199.067,173.196 L199.351,174.256 L196.193,174.059 L198.829,172.309 L198.988,172.899 C198.346,170.372 198.000,167.727 198.000,165.000 C198.000,164.448 198.014,163.899 198.042,163.353 C198.054,163.105 198.080,162.861 198.098,162.615 C198.120,162.319 198.135,162.022 198.165,161.728 C198.197,161.420 198.242,161.115 198.282,160.809 C198.312,160.582 198.334,160.353 198.369,160.127 C198.423,159.772 198.492,159.421 198.557,159.070 C198.590,158.898 198.615,158.723 198.650,158.551 C198.729,158.168 198.821,157.790 198.913,157.412 C198.932,157.335 198.949,157.257 198.967,157.180 L198.829,157.691 L196.193,155.941 L199.351,155.744 L199.124,156.593 C199.201,156.316 199.277,156.038 199.359,155.764 C199.387,155.671 199.410,155.577 199.439,155.484 C199.575,155.047 199.724,154.616 199.877,154.187 C199.900,154.125 199.919,154.060 199.942,153.997 C200.110,153.538 200.290,153.085 200.479,152.636 C200.491,152.606 200.502,152.574 200.515,152.544 C200.711,152.079 200.920,151.621 201.137,151.167 C201.144,151.154 201.149,151.140 201.156,151.127 C201.532,150.345 201.944,149.583 202.381,148.838 L201.783,149.873 L199.689,147.500 L202.791,148.127 L202.472,148.680 C203.841,146.376 205.488,144.257 207.372,142.373 L206.660,143.085 L205.251,140.251 L208.085,141.660 L207.373,142.372 C207.373,142.372 207.373,142.372 207.374,142.372 C209.257,140.488 211.376,138.841 213.680,137.472 L213.127,137.791 L212.500,134.689 L214.873,136.783 L213.839,137.380 C214.584,136.943 215.345,136.532 216.127,136.155 C216.141,136.149 216.155,136.143 216.169,136.136 C216.622,135.919 217.080,135.711 217.544,135.515 C217.576,135.501 217.608,135.490 217.639,135.477 C218.087,135.289 218.539,135.109 218.997,134.942 C219.054,134.921 219.112,134.904 219.168,134.884 C219.603,134.727 220.041,134.577 220.484,134.439 C220.570,134.412 220.659,134.391 220.745,134.364 C221.025,134.280 221.307,134.203 221.589,134.125 L220.744,134.351 L220.941,131.193 L222.691,133.830 L222.181,133.966 C222.255,133.950 222.329,133.933 222.402,133.915 C222.783,133.822 223.164,133.729 223.551,133.650 C223.727,133.614 223.906,133.588 224.083,133.555 C224.430,133.490 224.776,133.422 225.127,133.369 C225.367,133.332 225.612,133.308 225.854,133.276 C226.145,133.239 226.435,133.195 226.728,133.165 C227.022,133.135 227.319,133.120 227.615,133.098 C227.861,133.080 228.105,133.054 228.353,133.042 C228.899,133.014 229.448,133.000 230.000,133.000 C230.552,133.000 231.101,133.014 231.647,133.042 C231.882,133.054 232.113,133.078 232.347,133.095 C232.656,133.117 232.966,133.134 233.272,133.165 C233.575,133.196 233.874,133.241 234.174,133.280 C234.407,133.310 234.642,133.333 234.873,133.369 C235.223,133.422 235.568,133.490 235.915,133.555 C236.092,133.588 236.272,133.614 236.449,133.650 C236.836,133.729 237.218,133.823 237.600,133.916 C237.673,133.934 237.746,133.950 237.820,133.966 L237.316,133.832 L239.059,131.193 L239.248,134.349 L238.407,134.124 C238.684,134.201 238.962,134.277 239.236,134.359 C239.329,134.387 239.423,134.410 239.515,134.438 C239.955,134.575 240.390,134.725 240.822,134.880 C240.881,134.902 240.942,134.920 241.002,134.941 C241.459,135.109 241.909,135.288 242.356,135.475 C242.388,135.489 242.422,135.501 242.455,135.514 C242.921,135.712 243.382,135.920 243.837,136.139 C243.848,136.145 243.861,136.149 243.872,136.155 C244.654,136.532 245.416,136.943 246.161,137.380 L245.134,136.787 L247.500,134.689 L246.866,137.787 L246.319,137.471 C248.623,138.840 250.742,140.487 252.626,142.371 C252.626,142.371 252.626,142.371 252.626,142.371 L251.920,141.665 L254.749,140.251 L253.334,143.080 L252.629,142.374 C254.513,144.258 256.160,146.377 257.529,148.682 L257.213,148.134 L260.311,147.500 L258.213,149.866 L257.619,148.838 C258.056,149.583 258.468,150.345 258.845,151.128 C258.851,151.140 258.856,151.152 258.861,151.164 C259.080,151.619 259.288,152.079 259.486,152.545 C259.500,152.578 259.511,152.612 259.525,152.646 C259.712,153.092 259.892,153.542 260.059,153.998 C260.080,154.058 260.098,154.120 260.120,154.180 C260.275,154.611 260.425,155.045 260.562,155.485 C260.590,155.577 260.613,155.671 260.641,155.763 C260.723,156.037 260.799,156.314 260.876,156.591 L260.651,155.752 L263.807,155.941 L261.168,157.684 L261.034,157.181 ZM230.000,142.000 C217.297,142.000 207.000,152.298 207.000,165.000 C207.000,177.703 217.297,188.000 230.000,188.000 C242.703,188.000 253.000,177.703 253.000,165.000 C253.000,152.298 242.703,142.000 230.000,142.000 ZM230.000,172.000 C226.134,172.000 223.000,168.866 223.000,165.000 C223.000,161.134 226.134,158.000 230.000,158.000 C233.866,158.000 237.000,161.134 237.000,165.000 C237.000,168.866 233.866,172.000 230.000,172.000 ZM265.000,165.000 L262.000,166.000 L262.000,165.000 L262.000,164.000 L265.000,165.000 ZM231.024,197.000 L230.016,200.000 L230.008,199.977 L230.000,200.000 L228.992,197.000 L229.008,197.000 L230.000,197.000 L231.008,197.000 L231.024,197.000 ZM195.000,165.000 L198.000,163.992 L198.000,165.000 L198.000,166.008 L195.000,165.000 ZM230.000,130.000 L231.000,133.000 L230.000,133.000 L229.000,133.000 L230.000,130.000 ZM202.791,181.873 L199.689,182.500 L201.783,180.127 L202.791,181.873 ZM208.085,188.340 L205.251,189.749 L206.660,186.915 L208.085,188.340 ZM214.873,193.217 L212.500,195.311 L213.127,192.209 L214.873,193.217 Z"/>
        <path d="M37.431,159.810 L39.500,160.500 L37.500,160.500 C37.500,161.350 37.309,162.148 36.989,162.877 L38.428,164.500 L36.680,163.491 C36.269,164.195 35.713,164.800 35.061,165.283 L35.500,167.428 L34.481,165.664 C33.791,166.061 33.020,166.334 32.190,166.430 L31.500,168.500 L31.500,166.500 C30.650,166.500 29.852,166.309 29.123,165.989 L27.500,167.428 L28.509,165.680 C27.805,165.269 27.200,164.713 26.717,164.061 L24.572,164.500 L26.336,163.481 C25.939,162.791 25.666,162.020 25.569,161.190 L23.500,160.500 L25.500,160.500 C25.500,159.650 25.691,158.852 26.011,158.123 L24.572,156.500 L26.320,157.509 C26.731,156.805 27.287,156.200 27.939,155.717 L27.500,153.572 L28.519,155.336 C29.209,154.939 29.980,154.666 30.810,154.570 L31.500,152.500 L31.500,154.500 C32.350,154.500 33.148,154.691 33.877,155.011 L35.500,153.572 L34.491,155.320 C35.195,155.731 35.800,156.287 36.283,156.939 L38.428,156.500 L36.664,157.519 C37.061,158.209 37.334,158.980 37.431,159.810 Z" class="cls-3"/>
        <path d="M428.892,146.134 L431.990,145.500 L429.892,147.866 L428.892,146.134 ZM434.000,153.000 L431.000,154.000 L431.000,153.000 L431.000,152.000 L434.000,153.000 ZM419.000,165.000 C412.373,165.000 407.000,159.627 407.000,153.000 C407.000,146.373 412.373,141.000 419.000,141.000 C425.627,141.000 431.000,146.373 431.000,153.000 C431.000,159.627 425.627,165.000 419.000,165.000 ZM419.000,151.000 C417.895,151.000 417.000,151.895 417.000,153.000 C417.000,154.105 417.895,155.000 419.000,155.000 C420.105,155.000 421.000,154.105 421.000,153.000 C421.000,151.895 420.105,151.000 419.000,151.000 ZM419.000,168.000 L418.000,165.000 L419.000,165.000 L420.000,165.000 L419.000,168.000 ZM404.000,153.000 L407.000,152.000 L407.000,153.000 L407.000,154.000 L404.000,153.000 ZM419.000,138.000 L420.000,141.000 L419.000,141.000 L418.000,141.000 L419.000,138.000 ZM424.134,142.108 L426.500,140.010 L425.866,143.108 L424.134,142.108 ZM411.500,140.010 L413.866,142.108 L412.134,143.108 L411.500,140.010 ZM406.010,145.500 L409.108,146.134 L408.108,147.866 L406.010,145.500 ZM409.108,159.866 L406.010,160.500 L408.108,158.134 L409.108,159.866 ZM413.866,163.892 L411.500,165.990 L412.134,162.892 L413.866,163.892 ZM426.500,165.990 L424.134,163.892 L425.866,162.892 L426.500,165.990 ZM431.990,160.500 L428.892,159.866 L429.892,158.134 L431.990,160.500 Z" class="cls-2"/>
        <path d="M26.000,141.000 L23.000,142.000 L23.000,141.000 L23.000,140.000 L26.000,141.000 ZM21.071,146.657 L22.485,149.485 L19.657,148.071 L20.363,147.365 C18.734,148.993 16.485,150.000 14.000,150.000 C11.515,150.000 9.265,148.993 7.636,147.364 L8.343,148.071 L5.515,149.485 L6.929,146.657 L7.636,147.364 C6.007,145.735 5.000,143.485 5.000,141.000 C5.000,138.515 6.007,136.265 7.636,134.636 L6.929,135.343 L5.515,132.515 L8.343,133.929 L7.636,134.636 C9.265,133.007 11.515,132.000 14.000,132.000 C16.485,132.000 18.734,133.007 20.363,134.635 L19.657,133.929 L22.485,132.515 L21.071,135.343 L20.365,134.637 C21.993,136.266 23.000,138.515 23.000,141.000 C23.000,143.485 21.993,145.734 20.365,147.363 L21.071,146.657 ZM14.000,153.000 L13.000,150.000 L14.000,150.000 L15.000,150.000 L14.000,153.000 ZM2.000,141.000 L5.000,140.000 L5.000,141.000 L5.000,142.000 L2.000,141.000 ZM14.000,129.000 L15.000,132.000 L14.000,132.000 L13.000,132.000 L14.000,129.000 Z" class="cls-2"/>
        <path d="M448.490,112.634 L451.588,112.000 L449.490,114.366 L448.490,112.634 ZM454.000,121.000 L451.000,122.000 L451.000,121.000 L451.000,120.000 L454.000,121.000 ZM436.000,136.000 C427.716,136.000 421.000,129.284 421.000,121.000 C421.000,112.716 427.716,106.000 436.000,106.000 C444.284,106.000 451.000,112.716 451.000,121.000 C451.000,129.284 444.284,136.000 436.000,136.000 ZM436.000,114.000 C432.134,114.000 429.000,117.134 429.000,121.000 C429.000,124.866 432.134,128.000 436.000,128.000 C439.866,128.000 443.000,124.866 443.000,121.000 C443.000,117.134 439.866,114.000 436.000,114.000 ZM436.000,139.000 L435.000,136.000 L436.000,136.000 L437.000,136.000 L436.000,139.000 ZM418.000,121.000 L421.000,120.000 L421.000,121.000 L421.000,122.000 L418.000,121.000 ZM436.000,103.000 L437.000,106.000 L436.000,106.000 L435.000,106.000 L436.000,103.000 ZM442.634,107.510 L445.000,105.412 L444.366,108.510 L442.634,107.510 ZM427.000,105.412 L429.366,107.510 L427.634,108.510 L427.000,105.412 ZM420.412,112.000 L423.510,112.634 L422.510,114.366 L420.412,112.000 ZM423.510,129.366 L420.412,130.000 L422.510,127.634 L423.510,129.366 ZM429.366,134.490 L427.000,136.588 L427.634,133.490 L429.366,134.490 ZM445.000,136.588 L442.634,134.490 L444.366,133.490 L445.000,136.588 ZM451.588,130.000 L448.490,129.366 L449.490,127.634 L451.588,130.000 Z" class="cls-2"/>
        <circle cx="405" cy="127" r="7" class="cls-4"/>
        <circle cx="110" cy="145" r="60" class="cls-5"/>
        <path class="gear-m gear-5 cls-6" d="M360.618,123.684 C362.792,129.030 364.000,134.873 364.000,141.000 C364.000,147.129 362.791,152.973 360.616,158.320 L360.881,157.680 L364.200,160.120 L360.128,159.499 L360.247,159.211 C355.602,169.970 346.972,178.601 336.213,183.246 L336.527,183.116 L337.148,187.188 L334.708,183.869 L335.322,183.615 C329.974,185.791 324.130,187.000 318.000,187.000 C311.870,187.000 306.024,185.791 300.676,183.614 L301.342,183.890 L298.880,187.200 L299.480,183.119 L299.789,183.247 C289.030,178.603 280.399,169.972 275.754,159.213 L275.893,159.549 L271.812,160.149 L275.122,157.687 L275.385,158.321 C273.209,152.973 272.000,147.129 272.000,141.000 C272.000,134.870 273.209,129.026 275.385,123.678 L275.122,124.313 L271.806,121.866 L275.881,122.480 L275.753,122.789 C280.398,112.029 289.029,103.398 299.789,98.753 L299.480,98.881 L298.866,94.806 L301.313,98.122 L300.679,98.385 C306.026,96.209 311.871,95.000 318.000,95.000 C324.130,95.000 329.975,96.209 335.323,98.385 L334.680,98.119 L337.134,94.806 L336.527,98.884 L336.212,98.754 C341.591,101.076 346.442,104.389 350.526,108.472 L349.820,107.766 L353.355,105.645 L351.234,109.180 L350.528,108.474 C354.610,112.557 357.923,117.407 360.245,122.784 L360.116,122.473 L364.194,121.866 L360.881,124.320 L360.618,123.684 ZM318.000,119.000 C305.850,119.000 296.000,128.850 296.000,141.000 C296.000,153.150 305.850,163.000 318.000,163.000 C330.150,163.000 340.000,153.150 340.000,141.000 C340.000,128.850 330.150,119.000 318.000,119.000 ZM368.000,140.985 L364.000,141.969 L364.000,141.000 L364.000,140.000 L368.000,140.985 ZM318.016,191.000 L317.008,187.000 L318.000,187.000 L319.024,187.000 L318.016,191.000 ZM268.000,141.000 L272.000,140.008 L272.000,141.000 L272.000,141.992 L268.000,141.000 ZM318.000,91.000 L319.000,95.000 L318.000,95.000 L317.000,95.000 L318.000,91.000 ZM282.645,105.645 L286.175,107.771 L284.771,109.175 L282.645,105.645 ZM286.197,174.251 L282.656,176.366 L284.772,172.825 L286.197,174.251 ZM353.366,176.344 L349.842,174.212 L351.234,172.820 L353.366,176.344 Z"/>
        <circle cx="278" cy="90" r="45" class="cls-5"/>
        <path class="cls-2 gear-m gear-4" d="M312.865,82.156 C313.145,83.225 313.375,84.310 313.553,85.411 C313.562,85.466 313.568,85.522 313.577,85.577 C313.654,86.070 313.724,86.565 313.780,87.064 C313.803,87.267 313.819,87.469 313.838,87.672 C313.871,88.016 313.904,88.360 313.927,88.707 C313.950,89.065 313.963,89.422 313.976,89.779 C313.982,89.971 313.993,90.163 313.996,90.356 C314.006,90.869 314.002,91.381 313.989,91.892 C313.988,91.936 313.988,91.980 313.987,92.024 C313.955,93.136 313.868,94.239 313.732,95.332 L313.830,94.584 L318.660,96.206 L313.575,96.522 L313.635,96.069 C313.399,97.674 313.057,99.254 312.606,100.798 C311.834,103.456 310.756,105.964 309.427,108.299 L309.807,107.640 L313.649,110.987 L308.830,109.333 L309.060,108.935 C308.326,110.163 307.518,111.337 306.647,112.457 C306.579,112.545 306.512,112.636 306.443,112.724 C306.224,113.000 305.996,113.269 305.769,113.539 C305.618,113.719 305.469,113.902 305.313,114.079 C305.162,114.251 305.006,114.417 304.852,114.586 C304.610,114.851 304.368,115.117 304.117,115.376 C304.044,115.451 303.968,115.523 303.895,115.597 C302.894,116.612 301.832,117.570 300.706,118.461 L301.094,118.163 L303.363,122.725 L299.544,119.353 L300.119,118.911 C297.977,120.533 295.631,121.929 293.097,123.041 C291.625,123.690 290.102,124.235 288.540,124.678 L289.048,124.543 L289.368,129.633 L287.100,125.064 L287.837,124.867 C286.770,125.146 285.686,125.376 284.587,125.553 C284.535,125.562 284.484,125.568 284.432,125.576 C283.936,125.654 283.437,125.723 282.934,125.780 C282.734,125.803 282.535,125.818 282.335,125.838 C281.988,125.871 281.641,125.904 281.291,125.927 C280.936,125.950 280.581,125.963 280.227,125.975 C280.032,125.982 279.838,125.993 279.643,125.996 C279.131,126.006 278.621,126.002 278.113,125.989 C278.067,125.988 278.021,125.988 277.975,125.987 C276.863,125.955 275.761,125.868 274.668,125.732 L275.447,125.834 L273.795,130.660 L273.448,125.571 L273.933,125.635 C272.327,125.399 270.746,125.057 269.203,124.606 C266.545,123.835 264.037,122.756 261.701,121.427 L262.386,121.823 L259.014,125.649 L260.641,120.815 L261.065,121.060 C259.836,120.325 258.661,119.516 257.540,118.644 C257.452,118.577 257.363,118.512 257.277,118.444 C256.999,118.223 256.728,117.995 256.458,117.766 C256.279,117.616 256.098,117.468 255.922,117.314 C255.749,117.162 255.581,117.004 255.411,116.849 C255.147,116.608 254.882,116.367 254.625,116.118 C254.549,116.044 254.475,115.966 254.399,115.891 C253.386,114.892 252.429,113.831 251.539,112.706 L251.856,113.119 L247.275,115.363 L250.629,111.520 L251.090,112.121 C249.468,109.979 248.071,107.632 246.959,105.097 C246.310,103.626 245.765,102.103 245.322,100.542 L245.449,101.017 L240.363,101.353 L244.936,99.100 L245.133,99.838 C244.855,98.771 244.624,97.687 244.447,96.588 C244.438,96.534 244.432,96.481 244.423,96.427 C244.346,95.933 244.276,95.436 244.220,94.936 C244.197,94.733 244.181,94.532 244.162,94.330 C244.129,93.985 244.096,93.640 244.074,93.293 C244.050,92.935 244.037,92.577 244.024,92.220 C244.018,92.028 244.008,91.837 244.004,91.645 C243.994,91.130 243.998,90.617 244.011,90.105 C244.012,90.062 244.012,90.020 244.013,89.977 C244.045,88.866 244.131,87.764 244.268,86.672 L244.170,87.416 L239.342,85.779 L244.429,85.448 L244.366,85.928 C244.602,84.324 244.943,82.744 245.395,81.201 C246.167,78.541 247.246,76.032 248.576,73.695 L248.193,74.359 L244.359,71.000 L249.185,72.641 L248.938,73.069 C249.671,71.841 250.478,70.668 251.349,69.549 C251.419,69.458 251.487,69.365 251.558,69.274 C251.776,69.000 252.001,68.733 252.227,68.466 C252.380,68.284 252.531,68.099 252.688,67.920 C252.837,67.750 252.992,67.586 253.144,67.419 C253.388,67.151 253.632,66.884 253.884,66.623 C253.955,66.550 254.029,66.479 254.101,66.407 C255.102,65.391 256.166,64.432 257.293,63.540 L256.906,63.837 L254.649,59.266 L258.480,62.629 L257.881,63.088 C260.023,61.467 262.369,60.070 264.903,58.959 C266.375,58.310 267.898,57.765 269.460,57.322 L268.983,57.449 L268.647,52.363 L270.900,56.936 L270.162,57.133 C271.229,56.855 272.313,56.624 273.413,56.447 C273.465,56.438 273.518,56.432 273.570,56.424 C274.066,56.346 274.564,56.276 275.065,56.220 C275.266,56.197 275.467,56.182 275.667,56.162 C276.014,56.129 276.360,56.096 276.708,56.073 C277.065,56.050 277.421,56.037 277.777,56.024 C277.970,56.018 278.162,56.007 278.356,56.004 C278.869,55.994 279.381,55.998 279.891,56.011 C279.936,56.012 279.980,56.012 280.024,56.013 C281.135,56.045 282.237,56.131 283.329,56.268 L282.584,56.170 L284.221,51.342 L284.552,56.429 L284.071,56.366 C285.676,56.601 287.256,56.943 288.799,57.395 C291.458,58.166 293.967,59.246 296.303,60.575 L295.641,60.193 L299.000,56.359 L297.359,61.185 L296.932,60.939 C298.159,61.671 299.331,62.478 300.450,63.348 C300.542,63.419 300.635,63.487 300.726,63.558 C300.999,63.776 301.266,64.001 301.533,64.226 C301.716,64.379 301.901,64.531 302.081,64.688 C302.250,64.837 302.414,64.991 302.580,65.143 C302.848,65.387 303.116,65.632 303.377,65.884 C303.450,65.955 303.520,66.028 303.592,66.099 C304.607,67.100 305.566,68.164 306.459,69.291 L306.163,68.906 L310.734,66.649 L307.371,70.481 L306.914,69.884 C308.535,72.026 309.931,74.371 311.042,76.905 C311.691,78.377 312.236,79.901 312.679,81.462 L312.551,80.983 L317.633,80.632 L313.056,82.870 L312.865,82.156 ZM283.868,89.939 C283.850,89.859 283.847,89.775 283.826,89.696 C283.737,89.369 283.619,89.059 283.474,88.767 C283.409,88.638 283.321,88.525 283.246,88.403 C283.152,88.250 283.068,88.089 282.959,87.948 C282.852,87.810 282.722,87.691 282.601,87.564 C282.499,87.457 282.407,87.339 282.296,87.242 C282.184,87.144 282.054,87.067 281.933,86.978 C281.792,86.876 281.659,86.763 281.509,86.676 C281.352,86.585 281.179,86.521 281.012,86.447 C280.884,86.391 280.763,86.319 280.630,86.273 C280.322,86.167 279.999,86.090 279.663,86.045 C279.583,86.035 279.500,86.043 279.420,86.036 C279.169,86.014 278.918,85.997 278.673,86.013 C278.429,86.029 278.183,86.079 277.937,86.133 C277.858,86.150 277.774,86.153 277.696,86.174 C277.369,86.262 277.059,86.381 276.767,86.526 C276.633,86.593 276.515,86.685 276.388,86.763 C276.240,86.854 276.085,86.935 275.949,87.040 C275.807,87.149 275.686,87.282 275.557,87.405 C275.453,87.505 275.337,87.595 275.242,87.704 C275.142,87.818 275.063,87.951 274.973,88.075 C274.873,88.213 274.762,88.343 274.677,88.491 C274.583,88.652 274.516,88.831 274.440,89.005 C274.386,89.127 274.317,89.242 274.273,89.369 C274.167,89.678 274.090,90.001 274.045,90.337 C274.035,90.416 274.043,90.498 274.036,90.578 C274.014,90.830 273.997,91.081 274.013,91.327 C274.029,91.570 274.079,91.815 274.132,92.060 C274.150,92.140 274.153,92.225 274.174,92.304 C274.262,92.631 274.381,92.941 274.526,93.233 C274.592,93.364 274.682,93.480 274.758,93.604 C274.851,93.755 274.934,93.913 275.041,94.052 C275.148,94.191 275.279,94.311 275.401,94.438 C275.502,94.545 275.594,94.662 275.704,94.758 C275.817,94.857 275.948,94.934 276.069,95.023 C276.209,95.125 276.342,95.237 276.491,95.324 C276.648,95.415 276.822,95.480 276.991,95.554 C277.118,95.610 277.238,95.681 277.369,95.727 C277.678,95.833 278.001,95.910 278.337,95.955 C278.416,95.965 278.499,95.957 278.579,95.964 C278.830,95.986 279.082,96.003 279.327,95.987 C279.572,95.971 279.818,95.921 280.064,95.867 C280.143,95.850 280.226,95.847 280.304,95.826 C280.631,95.738 280.941,95.619 281.233,95.474 C281.364,95.408 281.479,95.319 281.603,95.243 C281.754,95.150 281.913,95.067 282.052,94.959 C282.191,94.852 282.311,94.721 282.439,94.598 C282.545,94.497 282.662,94.406 282.758,94.296 C282.857,94.183 282.935,94.051 283.024,93.929 C283.125,93.790 283.237,93.658 283.324,93.509 C283.416,93.350 283.482,93.174 283.556,93.004 C283.612,92.879 283.682,92.760 283.727,92.631 C283.833,92.322 283.910,91.999 283.955,91.663 C283.965,91.585 283.957,91.503 283.964,91.424 C283.986,91.172 284.003,90.919 283.987,90.673 C283.971,90.429 283.921,90.184 283.868,89.939 Z"/>
        <path class="cls-6 gear-m gear-2" d="M239.452,72.646 L233.634,74.421 L233.555,73.820 C233.847,76.173 234.000,78.568 234.000,81.000 C234.000,83.432 233.847,85.828 233.555,88.180 L233.634,87.579 L239.454,89.338 L233.377,89.531 L233.542,88.278 C233.247,90.622 232.813,92.923 232.249,95.172 L232.282,95.046 L237.823,97.550 L231.773,96.948 L231.962,96.242 C231.292,98.709 230.462,101.110 229.486,103.435 L229.968,102.272 L235.134,105.478 L229.214,104.091 L229.476,103.459 C223.604,117.425 212.424,128.605 198.458,134.476 L199.120,134.202 L200.506,140.122 L197.300,134.956 L198.436,134.486 C196.111,135.462 193.709,136.292 191.241,136.962 L191.978,136.765 L192.579,142.815 L190.075,137.275 L190.173,137.248 C187.924,137.813 185.623,138.247 183.279,138.542 L184.562,138.373 L184.369,144.450 L182.610,138.630 L183.181,138.555 C180.828,138.847 178.432,139.000 176.000,139.000 C173.568,139.000 171.171,138.847 168.818,138.555 L169.444,138.637 L167.662,144.455 L167.446,138.374 L168.723,138.542 C166.378,138.247 164.077,137.813 161.827,137.248 L161.977,137.289 L159.451,142.823 L160.030,136.767 L160.757,136.962 C158.314,136.298 155.935,135.476 153.630,134.513 L154.750,134.977 L151.523,140.134 L152.888,134.205 L153.490,134.455 C151.204,133.492 148.993,132.388 146.868,131.153 L146.757,131.089 C144.617,129.839 142.563,128.457 140.609,126.951 L141.504,127.638 L137.052,131.784 L139.905,126.411 L140.581,126.930 C138.613,125.411 136.745,123.769 134.989,122.013 L135.712,122.736 L130.756,126.266 L134.286,121.311 L134.986,122.011 C133.231,120.255 131.589,118.387 130.070,116.418 L130.609,117.120 L125.235,119.973 L129.382,115.521 L130.050,116.392 C128.544,114.438 127.161,112.384 125.911,110.243 L125.848,110.134 C124.613,108.009 123.509,105.798 122.546,103.513 L122.807,104.141 L116.878,105.506 L122.035,102.279 L122.487,103.369 C121.524,101.065 120.703,98.688 120.039,96.245 L120.241,97.000 L114.185,97.580 L119.719,95.053 L119.752,95.174 C119.187,92.925 118.753,90.624 118.458,88.280 L118.630,89.585 L112.550,89.369 L118.367,87.587 L118.445,88.180 C118.152,85.828 118.000,83.432 118.000,81.000 C118.000,78.569 118.152,76.173 118.445,73.821 L118.367,74.414 L112.548,72.646 L118.626,72.446 L118.458,73.720 C118.753,71.377 119.187,69.076 119.751,66.828 L119.719,66.947 L114.181,64.436 L120.233,65.030 L120.038,65.758 C120.702,63.315 121.524,60.936 122.487,58.631 L122.035,59.721 L116.872,56.508 L122.795,57.888 L122.545,58.490 C123.508,56.204 124.612,53.992 125.847,51.867 L125.911,51.757 C127.161,49.616 128.544,47.562 130.050,45.608 L129.381,46.479 L125.225,42.039 L130.589,44.905 L130.070,45.581 C131.589,43.612 133.232,41.744 134.988,39.988 L134.286,40.690 L130.745,35.745 L135.689,39.286 L134.988,39.988 C136.744,38.232 138.612,36.590 140.581,35.071 L139.904,35.590 L137.039,30.225 L141.479,34.382 L140.610,35.048 C142.565,33.542 144.618,32.160 146.759,30.910 L146.869,30.846 C148.995,29.611 151.206,28.507 153.492,27.544 L152.887,27.795 L151.508,21.872 L154.721,27.035 L153.636,27.485 C155.940,26.522 158.319,25.701 160.763,25.037 L160.030,25.233 L159.435,19.181 L161.947,24.719 L161.824,24.752 C164.074,24.187 166.375,23.753 168.720,23.458 L167.445,23.626 L167.646,17.548 L169.413,23.367 L168.818,23.445 C171.171,23.153 173.568,23.000 176.000,23.000 C178.432,23.000 180.828,23.153 183.181,23.445 L182.579,23.366 L184.354,17.547 L184.562,23.627 L183.280,23.458 C185.624,23.753 187.925,24.187 190.175,24.752 L190.046,24.717 L192.564,19.181 L191.978,25.235 L191.240,25.038 C193.708,25.708 196.110,26.538 198.435,27.514 L197.272,27.032 L200.492,21.872 L199.120,27.798 L198.458,27.523 C212.424,33.395 223.605,44.576 229.477,58.542 L229.202,57.880 L235.128,56.508 L229.968,59.728 L229.487,58.567 C230.463,60.891 231.292,63.293 231.963,65.761 L231.765,65.023 L237.819,64.436 L232.282,66.954 L232.249,66.828 C232.813,69.077 233.247,71.378 233.542,73.721 L233.373,72.438 L239.452,72.646 ZM176.000,50.000 C158.879,50.000 145.000,63.879 145.000,81.000 C145.000,98.121 158.879,112.000 176.000,112.000 C193.121,112.000 207.000,98.121 207.000,81.000 C207.000,63.879 193.121,50.000 176.000,50.000 ZM176.000,86.000 C173.239,86.000 171.000,83.761 171.000,81.000 C171.000,78.239 173.239,76.000 176.000,76.000 C178.761,76.000 181.000,78.239 181.000,81.000 C181.000,83.761 178.761,86.000 176.000,86.000 ZM240.000,80.985 L234.000,81.969 L234.000,81.000 L234.000,80.000 L240.000,80.985 ZM176.016,145.000 L175.008,139.000 L176.000,139.000 L177.024,139.000 L176.016,145.000 ZM147.887,131.741 L144.014,136.434 L146.141,130.733 L146.757,131.089 C146.794,131.111 146.831,131.132 146.868,131.153 L147.887,131.741 ZM126.282,110.887 L120.582,113.014 L125.274,109.141 L125.848,110.134 C125.869,110.170 125.890,110.207 125.911,110.243 L126.282,110.887 ZM112.000,81.000 L118.000,80.008 L118.000,81.000 L118.000,81.993 L112.000,81.000 ZM125.274,52.860 L120.574,49.000 L126.267,51.141 L125.911,51.757 C125.889,51.794 125.869,51.830 125.847,51.867 L125.274,52.860 ZM146.141,31.267 L144.000,25.574 L147.859,30.274 L146.869,30.846 C146.832,30.867 146.796,30.888 146.759,30.910 L146.141,31.267 ZM176.000,17.000 L177.000,23.000 L176.000,23.000 L175.000,23.000 L176.000,17.000 ZM225.729,51.134 L231.426,49.000 L226.729,52.866 L225.729,51.134 ZM221.406,44.898 L226.775,42.039 L222.623,46.485 L221.406,44.898 ZM216.305,39.281 L221.255,35.745 L217.719,40.695 L216.305,39.281 ZM210.515,34.377 L214.961,30.225 L212.101,35.594 L210.515,34.377 ZM204.134,30.270 L208.000,25.574 L205.866,31.271 L204.134,30.270 ZM208.013,136.418 L204.161,131.714 L205.866,130.729 L208.013,136.418 ZM214.973,131.765 L210.539,127.605 L212.101,126.406 L214.973,131.765 ZM221.266,126.244 L216.327,122.698 L217.719,121.305 L221.266,126.244 ZM226.729,109.134 L231.433,112.987 L225.745,110.839 L226.729,109.134 ZM226.784,119.949 L221.424,117.077 L222.623,115.515 L226.784,119.949 Z"/>
        <circle cx="110" cy="145" r="60" class="cls-5"/>
        <path class="cls-2 gear-m gear-1" d="M158.497,133.925 C159.476,137.788 160.000,141.833 160.000,146.000 C160.000,150.159 159.479,154.195 158.504,158.050 L158.594,157.711 L162.199,159.712 L158.077,159.643 L158.338,158.668 C153.885,175.340 140.861,188.507 124.271,193.166 L124.650,193.065 L124.734,197.183 L122.748,193.574 L122.805,193.559 C119.023,194.495 115.071,195.000 111.000,195.000 C106.765,195.000 102.661,194.448 98.741,193.437 L99.289,193.584 L97.302,197.193 L97.387,193.075 L97.674,193.151 C93.911,192.090 90.331,190.591 86.994,188.713 L87.372,188.932 L84.519,191.904 L85.667,187.947 L86.937,188.680 C79.603,184.541 73.441,178.572 69.080,171.383 L65.113,172.510 L68.073,169.637 L68.635,170.611 C66.565,167.056 64.934,163.216 63.803,159.167 L63.936,159.664 L59.812,159.726 L63.415,157.717 L63.665,158.652 C62.585,154.616 62.000,150.378 62.000,146.000 C62.000,141.904 62.510,137.928 63.457,134.125 L63.410,134.302 L59.807,132.293 L63.931,132.355 L63.857,132.631 C64.955,128.753 66.519,125.071 68.483,121.648 L68.059,122.383 L65.099,119.510 L69.067,120.637 L68.520,121.585 C72.857,114.052 79.139,107.781 86.682,103.459 L85.645,104.057 L84.505,100.097 L87.364,103.065 L86.723,103.435 C90.384,101.342 94.342,99.707 98.518,98.610 L97.361,98.920 L97.284,94.799 L99.278,98.406 L98.856,98.519 C102.740,97.529 106.808,97.000 111.000,97.000 C115.192,97.000 119.260,97.529 123.143,98.519 L122.729,98.408 L124.722,94.801 L124.646,98.922 L123.484,98.610 C131.998,100.847 139.609,105.312 145.648,111.351 L144.941,110.645 L148.477,108.523 L146.355,112.059 L145.649,111.352 C151.650,117.354 156.094,124.908 158.345,133.358 L158.073,132.345 L162.196,132.276 L158.591,134.277 L158.497,133.925 ZM111.000,104.000 C87.804,104.000 69.000,122.804 69.000,146.000 C69.000,169.196 87.804,188.000 111.000,188.000 C134.196,188.000 153.000,169.196 153.000,146.000 C153.000,122.804 134.196,104.000 111.000,104.000 ZM111.000,156.000 C105.477,156.000 101.000,151.523 101.000,146.000 C101.000,140.477 105.477,136.000 111.000,136.000 C116.523,136.000 121.000,140.477 121.000,146.000 C121.000,151.523 116.523,156.000 111.000,156.000 ZM164.000,145.985 L160.000,146.969 L160.000,146.000 L160.000,145.000 L164.000,145.985 ZM111.016,199.000 L110.008,195.000 L111.000,195.000 L112.024,195.000 L111.016,199.000 ZM58.000,146.000 L62.000,145.008 L62.000,146.000 L62.000,146.992 L58.000,146.000 ZM111.000,93.000 L112.000,97.000 L111.000,97.000 L110.000,97.000 L111.000,93.000 ZM152.940,120.630 L156.904,119.496 L153.940,122.363 L152.940,120.630 ZM134.646,103.065 L137.506,100.097 L136.365,104.057 L134.646,103.065 ZM73.523,108.523 L77.053,110.650 L75.650,112.054 L73.523,108.523 ZM77.076,181.372 L73.534,183.488 L75.650,179.947 L77.076,181.372 ZM137.518,191.888 L134.665,188.916 L136.371,187.932 L137.518,191.888 ZM148.488,183.466 L144.963,181.334 L146.355,179.941 L148.488,183.466 ZM156.905,172.497 L152.941,171.363 L153.941,169.630 L156.905,172.497 Z"/>
        <path class="cls-3 gear-m gear-inner-1" d="M300.294,71.634 L303.392,71.000 L301.294,73.366 L300.294,71.634 ZM305.000,77.000 L302.000,78.000 L302.000,77.000 L302.000,76.000 L305.000,77.000 ZM293.000,86.000 C288.029,86.000 284.000,81.971 284.000,77.000 C284.000,72.029 288.029,68.000 293.000,68.000 C297.970,68.000 302.000,72.029 302.000,77.000 C302.000,81.971 297.970,86.000 293.000,86.000 ZM293.000,89.000 L292.000,86.000 L293.000,86.000 L294.000,86.000 L293.000,89.000 ZM281.000,77.000 L284.000,76.000 L284.000,77.000 L284.000,78.000 L281.000,77.000 ZM293.000,65.000 L294.000,68.000 L293.000,68.000 L292.000,68.000 L293.000,65.000 ZM296.634,68.706 L299.000,66.608 L298.366,69.706 L296.634,68.706 ZM287.000,66.608 L289.366,68.706 L287.634,69.706 L287.000,66.608 ZM282.608,71.000 L285.706,71.634 L284.706,73.366 L282.608,71.000 ZM285.706,82.366 L282.608,83.000 L284.706,80.634 L285.706,82.366 ZM289.366,85.294 L287.000,87.392 L287.634,84.294 L289.366,85.294 ZM299.000,87.392 L296.634,85.294 L298.366,84.294 L299.000,87.392 ZM303.392,83.000 L300.294,82.366 L301.294,80.634 L303.392,83.000 Z"/>
    </g>
</svg>