<svg xmlns="http://www.w3.org/2000/svg" preserveAspectRatio="xMidYMid" width="612.469" height="131" viewBox="0 0 612.469 131"><defs><style>.cls-1{fill:#f7f8fa}.cls-1,.cls-2,.cls-3{fill-rule:evenodd}.cls-2{fill:#eceff2}.cls-3{fill:#cae0f6}.cls-filter{filter:url(#AI_blur)}</style><filter id="AI_blur"><feGaussianBlur stdDeviation="4"/></filter></defs><path d="M78.469 0h455.539l78.461 131H.008L78.469 0z" class="cls-1"/><path d="M504.307 51.645h-33.955c-1.339 0-2.601-.468-2.816-1.045l-5.284-14.116c-.202-.538.681-.973 1.97-.973h32.686c1.29 0 2.537.435 2.787.973l6.552 14.116c.268.577-.601 1.045-1.94 1.045zm-12.595-27.464h-31.795c-1.254 0-2.425-.411-2.614-.917l-4.645-12.407c-.177-.474.661-.857 1.871-.857h30.681c1.21 0 2.369.383 2.589.857l5.759 12.407c.235.506-.591.917-1.846.917zm-7.417 98.872h-39.569c-1.56 0-2.997-.636-3.208-1.418l-5.135-19.051c-.194-.722.859-1.306 2.352-1.306h37.857c1.493 0 2.914.584 3.173 1.306l6.846 19.051c.281.782-.756 1.418-2.316 1.418zm-70.534-71.408h-33.954c-1.34 0-2.503-.468-2.598-1.045l-2.325-14.116c-.088-.538.885-.973 2.175-.973h32.686c1.289 0 2.445.435 2.582.973L415.92 50.6c.147.577-.819 1.045-2.159 1.045zm-6.837-27.464h-31.795c-1.255 0-2.339-.411-2.422-.917l-2.044-12.407c-.078-.474.84-.857 2.05-.857h30.681c1.211 0 2.289.383 2.41.857l3.158 12.407c.129.506-.783.917-2.038.917zm-28.144 98.872h-39.568c-1.561 0-2.865-.636-2.912-1.418l-1.141-19.051c-.043-.722 1.133-1.306 2.626-1.306h37.857c1.493 0 2.791.584 2.899 1.306l2.853 19.051c.117.782-1.053 1.418-2.614 1.418zm-54.391-41.544h-36.302c-1.432 0-2.569-.535-2.539-1.194l.723-16.094c.027-.611 1.164-1.106 2.539-1.106h34.856c1.375 0 2.512.495 2.54 1.106l.723 16.094c.029.659-1.108 1.194-2.54 1.194zm-1.173-29.864h-33.955c-1.34 0-2.404-.468-2.378-1.045l.634-14.116c.024-.538 1.089-.973 2.378-.973h32.686c1.29 0 2.355.435 2.379.973l.634 14.116c.026.577-1.039 1.045-2.378 1.045zm-1.08-27.464H290.34c-1.254 0-2.252-.411-2.229-.917l.557-12.407c.021-.474 1.02-.857 2.23-.857h30.681c1.21 0 2.208.383 2.23.857l.557 12.407c.023.506-.976.917-2.23.917zm-48.871 98.872h-39.568c-1.561 0-2.731-.636-2.614-1.418l2.852-19.051c.109-.722 1.407-1.306 2.9-1.306h37.856c1.494 0 2.669.584 2.626 1.306l-1.141 19.051c-.047.782-1.35 1.418-2.911 1.418zm-45.682-41.544h-36.302c-1.432 0-2.457-.535-2.289-1.194l4.097-16.094c.155-.611 1.396-1.106 2.771-1.106h34.856c1.375 0 2.409.495 2.308 1.106l-2.651 16.094c-.108.659-1.358 1.194-2.79 1.194zm5.087-29.864h-33.955c-1.339 0-2.306-.468-2.159-1.045l3.593-14.116c.137-.538 1.293-.973 2.583-.973h32.686c1.289 0 2.263.435 2.174.973L235.267 50.6c-.095.577-1.258 1.045-2.597 1.045zm4.678-27.464h-31.796c-1.254 0-2.166-.411-2.038-.917l3.159-12.407c.12-.474 1.199-.857 2.409-.857h30.681c1.21 0 2.129.383 2.05.857l-2.043 12.407c-.083.506-1.168.917-2.422.917zm-69.598 98.872h-39.568c-1.561 0-2.598-.636-2.317-1.418l6.847-19.051c.259-.722 1.679-1.306 3.173-1.306h37.856c1.494 0 2.547.584 2.352 1.306l-5.134 19.051c-.211.782-1.648 1.418-3.209 1.418zm-36.973-41.544H94.475c-1.432 0-2.344-.535-2.038-1.194l7.47-16.094c.284-.611 1.628-1.106 3.003-1.106h34.856c1.375 0 2.305.495 2.076 1.106l-6.024 16.094c-.247.659-1.608 1.194-3.041 1.194zm11.347-29.864H108.17c-1.34 0-2.208-.468-1.94-1.045l6.552-14.116c.249-.538 1.497-.973 2.786-.973h32.686c1.29 0 2.172.435 1.971.973L144.941 50.6c-.216.577-1.477 1.045-2.817 1.045zm10.436-27.464h-31.796c-1.254 0-2.08-.411-1.846-.917l5.76-12.407c.219-.474 1.379-.857 2.589-.857h30.681c1.21 0 2.048.383 1.87.857l-4.644 12.407c-.189.506-1.36.917-2.614.917z" class="cls-2 cls-filter"/><path d="M588.188 90.46h-112.78l-23.155-64.434h97.343l38.592 64.434zM62.881 26.026h97.343L137.069 90.46H24.289l38.592-64.434zm365.036 0l19.296 64.434H165.264l19.296-64.434h243.357z" class="cls-2"/><path d="M600.097 110.343h-13.775l-.257-.45h13.762l.27.45zm-587.448-.45h13.304l-.258.45H12.38l.269-.45zm274.687-9.265c-1.492 0-2.675-.58-2.643-1.295l.783-17.424c.03-.662 1.213-1.197 2.642-1.197h36.24c1.43 0 2.613.535 2.642 1.197l.783 17.424c.032.715-1.151 1.295-2.642 1.295h-37.805zm61.604 9.715h-85.862l.039-.45H348.9l.04.45z" class="cls-3"/><path d="M75.845 4.38L78.469 0h455.539l2.623 4.38H75.845zm413.587-2.339h-5.725l.127.274h5.729l-.131-.274zm11.449 0h-5.725l.136.274h5.729l-.14-.274zm8.587 0h-5.724l.141.274h5.729l-.146-.274zm22.899 0h-20.036l.147.274h20.051l-.162-.274z" class="cls-2"/></svg>