<svg xmlns="http://www.w3.org/2000/svg" preserveAspectRatio="xMidYMid" width="724" height="178" viewBox="0 0 724 178"><defs><style>.cls-1{fill:#f7f8fa}.cls-1,.cls-2,.cls-3{fill-rule:evenodd}.cls-2{fill:#fff}.cls-3{fill:#f1f2f4}.cls-1.cls-filter{filter:url(#AI_blur);fill:#ccc}.cls-filter-fix{display:none;transform:translate(0,2px);-webkit-transform:translate(0,2px);fill:#000;fill-opacity:.1}</style><filter id="AI_blur"><feGaussianBlur stdDeviation="3"/><feOffset in="blur" dy="4" result="offsetBlur"/><feMerge><feMergeNode in="offsetBlur"/><feMergeNode in="SourceGraphic"/></feMerge></filter></defs><path class="cls-1 cls-filter" d="M715.976 157c-.296 6.168-6.532 9.011-23.339 9.011H242.819 30.458c-17.067 0-22.678-2.932-22.427-9.3v-19.493c-.001-.094-.008-.184-.006-.279l.006-.205V136h.059c.008-.081.01-.159.02-.24.01-.075.015-.148.025-.223.053-.378.122-.766.207-1.165.016-.074.037-.151.054-.226a22.477 22.477 0 0 1 .364-1.384c.095-.322.198-.651.31-.985.038-.113.073-.224.112-.338.154-.445.318-.9.499-1.367.023-.061.05-.124.074-.186.16-.41.33-.829.509-1.256l.194-.459c.155-.361.316-.729.482-1.102.067-.151.133-.301.202-.453.233-.514.472-1.034.724-1.569 7.468-15.853 17.625-33.955 38.075-61.665 19.34-26.205 31.335-38.51 40.96-47.697 8.682-8.288 14.528-11.693 32.735-11.693H599.96c18.206 0 24.92 3.405 33.593 11.693 9.574 9.149 22.154 21.605 41.467 47.771 20.524 27.807 29.965 45.675 37.444 61.591.246.522.477 1.031.701 1.532l.194.443c.157.359.308.714.453 1.062l.19.462c.147.364.286.722.419 1.074.042.111.087.225.127.335.342.93.626 1.815.852 2.659l.069.277a19.233 19.233 0 0 1 .278 1.255c.066.358.12.709.16 1.05.003.033.009.067.013.1.026.241.031.471.042.704H716v21h-.024z"/><path class="cls-1 cls-filter-fix" d="M715.976 157c-.296 6.168-6.532 9.011-23.339 9.011H242.819 30.458c-17.067 0-22.678-2.932-22.427-9.3v-19.493c-.001-.094-.008-.184-.006-.279l.006-.205V136h.059c.008-.081.01-.159.02-.24.01-.075.015-.148.025-.223.053-.378.122-.766.207-1.165.016-.074.037-.151.054-.226a22.477 22.477 0 0 1 .364-1.384c.095-.322.198-.651.31-.985.038-.113.073-.224.112-.338.154-.445.318-.9.499-1.367.023-.061.05-.124.074-.186.16-.41.33-.829.509-1.256l.194-.459c.155-.361.316-.729.482-1.102.067-.151.133-.301.202-.453.233-.514.472-1.034.724-1.569 7.468-15.853 17.625-33.955 38.075-61.665 19.34-26.205 31.335-38.51 40.96-47.697 8.682-8.288 14.528-11.693 32.735-11.693H599.96c18.206 0 24.92 3.405 33.593 11.693 9.574 9.149 22.154 21.605 41.467 47.771 20.524 27.807 29.965 45.675 37.444 61.591.246.522.477 1.031.701 1.532l.194.443c.157.359.308.714.453 1.062l.19.462c.147.364.286.722.419 1.074.042.111.087.225.127.335.342.93.626 1.815.852 2.659l.069.277a19.233 19.233 0 0 1 .278 1.255c.066.358.12.709.16 1.05.003.033.009.067.013.1.026.241.031.471.042.704H716v21h-.024z"/><path d="M715.976 157c-.296 6.168-6.532 9.011-23.339 9.011H242.819 30.458c-17.067 0-22.678-2.932-22.427-9.3v-19.493c-.001-.094-.008-.184-.006-.279l.006-.205V136h.059c.008-.081.01-.159.02-.24.01-.075.015-.148.025-.223.053-.378.122-.766.207-1.165.016-.074.037-.151.054-.226a22.477 22.477 0 0 1 .364-1.384c.095-.322.198-.651.31-.985.038-.113.073-.224.112-.338.154-.445.318-.9.499-1.367.023-.061.05-.124.074-.186.16-.41.33-.829.509-1.256l.194-.459c.155-.361.316-.729.482-1.102.067-.151.133-.301.202-.453.233-.514.472-1.034.724-1.569 7.468-15.853 17.625-33.955 38.075-61.665 19.34-26.205 31.335-38.51 40.96-47.697 8.682-8.288 14.528-11.693 32.735-11.693H599.96c18.206 0 24.92 3.405 33.593 11.693 9.574 9.149 22.154 21.605 41.467 47.771 20.524 27.807 29.965 45.675 37.444 61.591.246.522.477 1.031.701 1.532l.194.443c.157.359.308.714.453 1.062l.19.462c.147.364.286.722.419 1.074.042.111.087.225.127.335.342.93.626 1.815.852 2.659l.069.277a19.233 19.233 0 0 1 .278 1.255c.066.358.12.709.16 1.05.003.033.009.067.013.1.026.241.031.471.042.704H716v21h-.024z" class="cls-1"/><path d="M599.96 3.992c18.206 0 24.92 3.405 33.593 11.693 9.574 9.149 22.154 21.605 41.467 47.771 20.524 27.807 29.965 45.675 37.444 61.591 6.837 14.55 5.483 20.987-19.827 20.987H242.819 30.458c-25.31 0-25.445-6.437-18.592-20.987 7.468-15.853 17.625-33.955 38.075-61.665 19.34-26.205 31.335-38.51 40.96-47.697 8.682-8.288 14.528-11.693 32.735-11.693H599.96z" class="cls-2"/><path d="M132.094 7.929L50.351 138.674h610.364L582.589 7.929H132.094zM253.031 159h-122a3 3 0 1 1 0-6h122a3 3 0 1 1 0 6zM103.486 19.867c-2.189 0-3.467-.718-2.858-1.6.607-.879 2.857-1.587 5.028-1.587 2.171 0 3.455.708 2.866 1.587-.591.882-2.847 1.6-5.036 1.6zm2.028 4.884c-.812 1.217-3.885 2.211-6.858 2.211s-4.694-.994-3.848-2.211c.841-1.211 3.902-2.186 6.841-2.186 2.94 0 4.672.975 3.865 2.186zM71.065 67.488c-4.926 0-7.647-1.814-6.091-4.031 1.539-2.194 6.695-3.956 11.529-3.956 4.835 0 7.591 1.762 6.143 3.956-1.463 2.217-6.654 4.031-11.581 4.031zm-34.036 49.995c-3.668 0-5.592-1.51-4.307-3.36 1.275-1.836 5.234-3.313 8.85-3.313 3.617 0 5.563 1.477 4.339 3.313-1.234 1.85-5.214 3.36-8.882 3.36z" class="cls-3"/></svg>