<svg class="phone-test" xmlns="http://www.w3.org/2000/svg" preserveAspectRatio="xMidYMid" width="712" height="166" viewBox="0 0 712 166"><defs><style>.cls-1{stroke:#c0c9d3;stroke-linecap:round;stroke-linejoin:round;stroke-width:2.5px;fill:none;fill-rule:evenodd}.draw{-webkit-animation-timing-function:linear;animation-timing-function:linear;-webkit-animation-iteration-count:1;animation-iteration-count:1;-webkit-animation-direction:normal;animation-direction:normal;-webkit-animation-play-state:paused;animation-play-state:paused;-webkit-animation-fill-mode:forwards;animation-fill-mode:forwards;-webkit-animation-duration:2s;animation-duration:2s}.draw:nth-child(1){stroke-dasharray:1601.908447265625,1601.908447265625;stroke-dashoffset:1601.908447265625;-webkit-animation-name:pathDraw1;animation-name:pathDraw1}@-webkit-keyframes pathDraw1{0%{stroke-dashoffset:1601.908447265625}to{stroke-dashoffset:0}}@keyframes pathDraw1{0%{stroke-dashoffset:1601.908447265625}to{stroke-dashoffset:0}}.draw:nth-child(2){stroke-dasharray:1562.49951171875,1562.49951171875;stroke-dashoffset:1562.49951171875;-webkit-animation-name:pathDraw2;animation-name:pathDraw2}@-webkit-keyframes pathDraw2{0%{stroke-dashoffset:1562.49951171875}to{stroke-dashoffset:0}}@keyframes pathDraw2{0%{stroke-dashoffset:1562.49951171875}to{stroke-dashoffset:0}}.draw:nth-child(3){stroke-dasharray:1367.41357421875,1367.41357421875;stroke-dashoffset:1367.41357421875;-webkit-animation-name:pathDraw3;animation-name:pathDraw3}@-webkit-keyframes pathDraw3{0%{stroke-dashoffset:1367.41357421875}to{stroke-dashoffset:0}}@keyframes pathDraw3{0%{stroke-dashoffset:1367.41357421875}to{stroke-dashoffset:0}}.draw:nth-child(4){stroke-dasharray:383.3097839355469,383.3097839355469;stroke-dashoffset:383.3097839355469;-webkit-animation-name:pathDraw4;animation-name:pathDraw4}@-webkit-keyframes pathDraw4{0%{stroke-dashoffset:383.3097839355469}to{stroke-dashoffset:0}}@keyframes pathDraw4{0%{stroke-dashoffset:383.3097839355469}to{stroke-dashoffset:0}}</style></defs><path class="cls-1 draw" d="M709.007 154c-.296 6.168-6.532 9.011-23.34 9.011H235.829 23.459c-17.068 0-22.679-2.932-22.428-9.3v-19.493c-.001-.094-.009-.184-.007-.279l.007-.205V133h.058c.009-.081.011-.158.021-.24.009-.075.014-.148.025-.223.053-.378.121-.766.207-1.165.016-.074.037-.151.054-.226.075-.328.159-.663.255-1.006a28.229 28.229 0 0 1 .419-1.363c.037-.113.072-.224.112-.338.153-.445.318-.9.498-1.367l.075-.186c.16-.41.33-.829.508-1.256l.195-.458c.155-.362.316-.73.482-1.103.067-.151.133-.301.202-.453.233-.514.472-1.034.724-1.569 7.468-15.853 17.625-33.955 38.077-61.665 19.341-26.205 31.336-38.509 40.961-47.697C92.587 4.397 98.433.992 116.641.992h476.345c18.207 0 24.921 3.405 33.594 11.693 9.575 9.149 22.155 21.605 41.469 47.771 20.525 27.807 29.966 45.675 37.446 61.591.245.522.477 1.031.701 1.533l.193.442c.158.359.309.714.454 1.062l.19.462c.147.364.286.722.419 1.074.042.111.087.225.127.335.342.93.626 1.815.852 2.659l.069.277a19.233 19.233 0 0 1 .278 1.255c.067.358.12.709.16 1.05.003.033.009.067.013.1.026.242.031.471.042.704h.038v21h-.024z"/><path class="cls-1 draw" d="M592.986.992c18.207 0 24.921 3.405 33.594 11.693 9.575 9.149 22.155 21.605 41.469 47.771 20.525 27.807 29.966 45.675 37.446 61.591 6.837 14.55 5.483 20.987-19.828 20.987H235.829 23.459c-25.312 0-25.447-6.437-18.593-20.987 7.468-15.853 17.625-33.955 38.077-61.665 19.341-26.205 31.336-38.509 40.961-47.697C92.587 4.397 98.433.992 116.641.992h476.345z"/><path class="cls-1 draw" d="M125.099 4.929L43.352 135.674h610.391L575.614 4.929H125.099zM246.031 156h-122a3 3 0 1 1 0-6h122a3 3 0 1 1 0 6zM96.49 16.867c-2.189 0-3.468-.718-2.858-1.6.607-.878 2.857-1.587 5.028-1.587 2.171 0 3.455.709 2.867 1.587-.592.882-2.848 1.6-5.037 1.6zm2.028 4.884c-.812 1.217-3.885 2.21-6.858 2.21-2.974 0-4.694-.993-3.848-2.21.841-1.211 3.902-2.186 6.841-2.186 2.94 0 4.672.975 3.865 2.186zm-34.45 42.737c-4.927 0-7.647-1.814-6.092-4.031 1.54-2.194 6.695-3.956 11.53-3.956 4.835 0 7.591 1.762 6.143 3.956-1.463 2.217-6.654 4.031-11.581 4.031zM30.03 114.483c-3.668 0-5.593-1.51-4.307-3.36 1.275-1.836 5.234-3.313 8.85-3.313 3.617 0 5.564 1.477 4.34 3.313-1.234 1.85-5.215 3.36-8.883 3.36z"/></svg>