<svg xmlns="http://www.w3.org/2000/svg" preserveAspectRatio="xMidYMid" width="50" height="50" viewBox="0 0 50 50"><defs><style>.cls-1{stroke:#c0c9d3;stroke-linecap:round;stroke-linejoin:round;stroke-width:2px;fill:none;fill-rule:evenodd}</style></defs><path d="M13.523 5.106A22.843 22.843 0 0 1 25 2.015c4.185 0 8.097 1.136 11.477 3.091M5.106 36.477A22.843 22.843 0 0 1 2.015 25c0-4.185 1.136-8.097 3.091-11.477m31.371 31.371A22.843 22.843 0 0 1 25 47.985a22.843 22.843 0 0 1-11.477-3.091m31.371-31.371A22.843 22.843 0 0 1 47.985 25c0 4.185-1.136 8.097-3.091 11.477" class="cls-1"/></svg>