<svg xmlns="http://www.w3.org/2000/svg" preserveAspectRatio="xMidYMid" width="100" height="100" viewBox="0 0 100 100"><defs><style>.cls-1{stroke:#c0c9d3;stroke-linecap:round;stroke-linejoin:round;stroke-width:2px;fill:none;fill-rule:evenodd}</style></defs><path d="M14 34H2V14C2 7.373 7.373 2 14 2h72c6.627 0 12 5.373 12 12v20H86" class="cls-1"/><path d="M65 2c0 8.284-6.716 15-15 15-8.284 0-15-6.716-15-15M18 22v68c0 4.418 14.916 8 32 8s32-3.582 32-8V22M18 46h64M82 66H18" class="cls-1"/><path d="M18 58l8-8 12 12 12-12 12 12 12-12 8 8M62 30h8" class="cls-1"/></svg>