<svg xmlns="http://www.w3.org/2000/svg" xmlns:xlink="http://www.w3.org/1999/xlink" preserveAspectRatio="xMidYMid" width="132" height="88" viewBox="0 0 132 88">
  <defs>
    <style>
      .cls-1 {
        stroke: #c0c9d3;
        stroke-linecap: round;
        stroke-linejoin: round;
        stroke-width: 2px;
        fill: none;
        fill-rule: evenodd;
      }

    </style>
  </defs>
  <g>
    <path d="M98.000,14.000 C98.000,14.000 105.163,14.000 114.000,14.000 C122.837,14.000 130.000,21.163 130.000,30.000 C130.000,38.837 130.000,86.000 130.000,86.000 L50.000,86.000 C50.000,86.000 50.000,38.837 50.000,30.000 C50.000,21.163 42.837,14.000 34.000,14.000 C25.163,14.000 18.000,21.163 18.000,30.000 " class="cls-1"/>
    <path d="M66.000,22.000 L94.000,22.000 L94.000,2.000 L66.000,2.000 L66.000,34.000 " class="cls-1"/>
    <circle cx="66" cy="38" r="4" class="cls-1"/>
    <path d="M122.000,70.000 L58.000,70.000 " class="cls-1"/>
    <path d="M62.000,14.000 L34.000,14.000 " class="cls-1"/>
    <path d="M50.000,86.000 L18.000,86.000 L18.000,74.000 " class="cls-1"/>
    <path d="M46.000,34.000 L2.000,34.000 L2.000,70.000 L46.000,70.000 " class="cls-1"/>
    <path d="M46.000,54.000 L22.000,54.000 L2.000,34.000 " class="cls-1"/>
  </g>
</svg>
