<svg xmlns="http://www.w3.org/2000/svg" preserveAspectRatio="xMidYMid" width="68" height="92" viewBox="0 0 68 92"><defs><style>.cls-1{stroke:#c0c9d3;stroke-linecap:round;stroke-linejoin:round;stroke-width:2px;fill:none;fill-rule:evenodd}</style></defs><path d="M50 55v27a8 8 0 0 1-8 8H10a8 8 0 0 1-8-8V10a8 8 0 0 1 8-8h32a8 8 0 0 1 8 8v12" class="cls-1"/><path d="M46 55v27H6V10h40v12M18 86h16" class="cls-1"/><path d="M26 26h40v24H34l-8 8V26z" class="cls-1"/><path d="M26 26l20 12 20-12M50 44" class="cls-1"/></svg>