<svg xmlns="http://www.w3.org/2000/svg" preserveAspectRatio="xMidYMid" width="80" height="76" viewBox="0 0 80 76"><defs><style>.cls-1{stroke:#c0c9d3;stroke-linecap:round;stroke-linejoin:round;stroke-width:2px;fill:none;fill-rule:evenodd}</style></defs><path d="M4 8H2v58a8 8 0 0 0 16 0V8l6-6 6 6 6-6 6 6 6-6 6 6 6-6 6 6 6-6 6 6v58a8 8 0 0 1-8 8H10" class="cls-1"/><path d="M12 8h-2v58M24 16h28v12H24V16zM56 60h16v8H56v-8zM24 32h48v24H24V32zM24 12h48M56 16h16M56 20h16M56 24h16M56 28h16M24 60h12M24 64h12M24 68h12M40 60h12M40 64h12M40 68h12M60 64h8M43 22" class="cls-1"/></svg>