<svg xmlns="http://www.w3.org/2000/svg" preserveAspectRatio="xMidYMid" width="220" height="428" viewBox="0 0 220 428"><defs><style>.cls-1,.cls-2{stroke:#c0c9d3;stroke-linecap:round;stroke-linejoin:round;stroke-width:2px;fill:none}.cls-1{fill-rule:evenodd}</style></defs><path d="M213.988 401.407c0 14.365-6.868 17.744-23.061 19.849-17.877 2.323-40.407 4.746-80.983 4.746-40.576 0-62.992-2.423-80.87-4.746-16.193-2.105-23.061-5.484-23.061-19.849V146.095 25.562c0-14.366 6.868-17.057 23.061-19.162 17.878-2.324 40.407-4.402 80.983-4.402 40.576 0 62.993 2.078 80.87 4.402 16.193 2.105 23.061 4.796 23.061 19.162v375.845z" class="cls-1"/><path d="M206.006 34.003H14.014v356.009h191.992V34.003z" class="cls-1"/><circle cx="109" cy="17" r="6" class="cls-2"/><path d="M214 54h4v28h-4M6 82H2v72h4" class="cls-1"/><circle cx="41" cy="17" r="4" class="cls-2"/><circle cx="173" cy="17" r="4" class="cls-2"/><circle cx="185" cy="17" r="3" class="cls-2"/></svg>