<svg xmlns="http://www.w3.org/2000/svg" xmlns:xlink="http://www.w3.org/1999/xlink" preserveAspectRatio="xMidYMid" width="100" height="100" viewBox="0 0 100 100">
  <defs>
    <style>
      .cls-1 {
        stroke: #c0c9d3;
        stroke-linecap: round;
        stroke-linejoin: round;
        stroke-width: 2px;
        fill: none;
        fill-rule: evenodd;
      }
    </style>
  </defs>
  <g>
    <path d="M14.000,34.000 C7.854,34.000 2.000,34.000 2.000,34.000 L2.000,14.000 C2.000,7.373 7.373,2.000 14.000,2.000 L86.000,2.000 C92.627,2.000 98.000,7.373 98.000,14.000 L98.000,34.000 C98.000,34.000 92.108,34.000 86.000,34.000 " class="cls-1"/>
    <path d="M65.000,2.000 C65.000,10.284 58.284,17.000 50.000,17.000 C41.716,17.000 35.000,10.284 35.000,2.000 " class="cls-1"/>
    <path d="M18.000,22.000 C18.000,22.000 18.000,85.582 18.000,90.000 C18.000,94.418 32.916,98.000 50.000,98.000 C67.084,98.000 82.000,94.418 82.000,90.000 C82.000,85.582 82.000,22.000 82.000,22.000 " class="cls-1"/>
    <path d="M18.000,46.000 L82.000,46.000 " class="cls-1"/>
    <path d="M82.000,66.000 L18.000,66.000 " class="cls-1"/>
    <path d="M18.000,58.000 L26.000,50.000 L38.000,62.000 L50.000,50.000 L62.000,62.000 L74.000,50.000 L82.000,58.000 " class="cls-1"/>
    <path d="M62.000,30.000 L70.000,30.000 " class="cls-1"/>
  </g>
</svg>
