<svg xmlns="http://www.w3.org/2000/svg" preserveAspectRatio="xMidYMid" width="84" height="132" viewBox="0 0 84 132"><defs><style>.cls-1{stroke:#c0c9d3;stroke-linecap:round;stroke-linejoin:round;stroke-width:2px;fill:none;fill-rule:evenodd}</style></defs><path d="M10 2h64a8 8 0 0 1 8 8v96a8 8 0 0 1-8 8H10a8 8 0 0 1-8-8V10a8 8 0 0 1 8-8z" class="cls-1"/><path d="M78 66v40a4 4 0 0 1-4 4H10a4 4 0 0 1-4-4V66m0-16V10a4 4 0 0 1 4-4h64a4 4 0 0 1 4 4v40M26 114v16M58 114v16M82 130H2" class="cls-1"/></svg>