<svg xmlns="http://www.w3.org/2000/svg" preserveAspectRatio="xMidYMid" width="132" height="100" viewBox="0 0 132 100"><defs><style>.cls-1{stroke:#c0c9d3;stroke-linecap:round;stroke-linejoin:round;stroke-width:2px;fill:none;fill-rule:evenodd}</style></defs><path d="M10 74H2V10h128v64H34" class="cls-1"/><path d="M115.066 14H122a4 4 0 0 1 4 4v48a4 4 0 0 1-4 4H31.977M12 70h-2a4 4 0 0 1-4-4V18a4 4 0 0 1 4-4h10.962M2 2h128M42 2v12M66 2v12M90 2v12M94 14h-8M70 14h-8M46 14h-8M42 74v24M50 74v24M82 74v24M90 74v24M2 98h128M22 80v18M22 61s10 16.477 10 22-4.477 10-10 10-10-4.477-10-10 10-22 10-22z" class="cls-1"/></svg>