<svg xmlns="http://www.w3.org/2000/svg" preserveAspectRatio="xMidYMid" width="68" height="104" viewBox="0 0 68 104"><defs><style>.cls-1{stroke:#c0c9d3;stroke-linejoin:round;stroke-linecap:round;stroke-width:2px;fill:none;fill-rule:evenodd}</style></defs><path d="M18 10V3a1 1 0 0 1 1-1h6a1 1 0 0 1 1 1v7M10 14v-3a1 1 0 0 1 1-1h46a1 1 0 0 1 1 1v3M2 26l4-12h56l4 12H2zM6 26l8 76h40l8-76M7 34h54M54 96H14" class="cls-1"/><circle cx="34" cy="58" r="16" class="cls-1"/><circle cx="34" cy="58" r="8" class="cls-1"/><path d="M42 82" class="cls-1"/></svg>