<svg xmlns="http://www.w3.org/2000/svg" preserveAspectRatio="xMidYMid" width="132" height="148" viewBox="0 0 131 148"><defs><style>.cls-1{stroke:#c0c9d3;stroke-linecap:round;stroke-linejoin:round;stroke-width:2px;fill:none;fill-rule:evenodd}</style></defs><path d="M6 2h120a4 4 0 0 1 4 4v136a4 4 0 0 1-4 4H6a4 4 0 0 1-4-4V6a4 4 0 0 1 4-4z" class="cls-1"/><path d="M10 26h112v48H10V26z" class="cls-1"/><circle cx="12" cy="10" r="3" class="cls-1"/><circle cx="22" cy="10" r="3" class="cls-1"/><circle cx="32" cy="10" r="3" class="cls-1"/><path d="M10 82h64v16H10V82zM82 82h40v32H82V82zM82 122h40v16H82v-16zM42 2v16M50 10h72M2 18h128M58 38v24l23-12-23-12zM10 106h36M52 106h22M10 114h64M10 122h20M36 122h38M10 130h36M52 130h22M10 138h64" class="cls-1"/></svg>