<svg xmlns="http://www.w3.org/2000/svg" xmlns:xlink="http://www.w3.org/1999/xlink" preserveAspectRatio="xMidYMid" width="187" height="110" viewBox="0 0 187 110">
    <defs>
        <style>
            .cls-1, .cls-2, .cls-3, .cls-4 {
                stroke: #c0c9d3;
            }

            .cls-1, .cls-2, .cls-5 {
                stroke-linecap: round;
                stroke-linejoin: round;
            }

            .cls-1, .cls-5 {
                stroke-width: 2px;
            }

            .cls-1, .cls-2, .cls-3, .cls-4, .cls-5 {
                fill: none;
            }

            .cls-1, .cls-2, .cls-3, .cls-5 {
                fill-rule: evenodd;
            }

            .cls-2, .cls-3, .cls-4 {
                stroke-width: 1px;
            }

            .cls-5 {
                stroke: #cae0f6;
            }

            .gear-m{
                animation-timing-function: linear;
                animation-iteration-count: infinite;
                animation-direction: normal;
                animation-play-state: paused;
                animation-fill-mode: forwards;
            }
            @keyframes rotateAnim {
                0%{
                    transform: rotate(0deg);
                }
                50%{
                    transform: rotate(180deg);
                }
                100%{
                    transform: rotate(360deg);
                }
            }
            @keyframes rotateReverseAnim {
                0%{
                    transform: rotate(0deg);
                }
                50%{
                    transform: rotate(-180deg);
                }
                100%{
                    transform: rotate(-360deg);
                }
            }
            .gear-1{
                animation-name:rotateAnim;
                animation-duration: 3.3333333333333335s;
                transform-origin:29px 67px;
            }
            .gear-2{
                animation-name:rotateReverseAnim;
                animation-duration: 6s;
                transform-origin:65px 43px;
            }
            .gear-3{
                animation-name:rotateAnim;
                animation-duration: 6s;
                transform-origin:108px 81px;
            }
            .gear-4{
                animation-name:rotateAnim;
                animation-duration: 6s;
                transform-origin:118px 28px
            }
            .gear-5{
                animation-name:rotateReverseAnim;
                animation-duration: 3s;
                transform-origin:151.5px 55.5px;
            }

        </style>
    </defs>
    <g>
        <path class="gear-m gear-1 cls-1" d="M38.892,60.134 L41.990,59.500 L39.892,61.866 L38.892,60.134 ZM44.000,67.000 L41.000,68.000 L41.000,67.000 L41.000,66.000 L44.000,67.000 ZM29.000,79.000 C22.373,79.000 17.000,73.627 17.000,67.000 C17.000,60.373 22.373,55.000 29.000,55.000 C35.627,55.000 41.000,60.373 41.000,67.000 C41.000,73.627 35.627,79.000 29.000,79.000 ZM29.000,66.000 C28.448,66.000 28.000,66.448 28.000,67.000 C28.000,67.552 28.448,68.000 29.000,68.000 C29.552,68.000 30.000,67.552 30.000,67.000 C30.000,66.448 29.552,66.000 29.000,66.000 ZM29.000,82.000 L28.000,79.000 L29.000,79.000 L30.000,79.000 L29.000,82.000 ZM14.000,67.000 L17.000,66.000 L17.000,67.000 L17.000,68.000 L14.000,67.000 ZM29.000,52.000 L30.000,55.000 L29.000,55.000 L28.000,55.000 L29.000,52.000 ZM34.134,56.108 L36.500,54.010 L35.866,57.108 L34.134,56.108 ZM21.500,54.010 L23.866,56.108 L22.134,57.108 L21.500,54.010 ZM16.010,59.500 L19.108,60.134 L18.108,61.866 L16.010,59.500 ZM19.108,73.866 L16.010,74.500 L18.108,72.134 L19.108,73.866 ZM23.866,77.892 L21.500,79.990 L22.134,76.892 L23.866,77.892 ZM36.500,79.990 L34.134,77.892 L35.866,76.892 L36.500,79.990 ZM41.990,74.500 L38.892,73.866 L39.892,72.134 L41.990,74.500 Z"/>
        <path d="M31.430,38.810 L33.500,39.500 L31.500,39.500 C31.500,40.350 31.309,41.148 30.989,41.877 L32.428,43.500 L30.680,42.491 C30.269,43.195 29.713,43.800 29.061,44.283 L29.500,46.428 L28.481,44.664 C27.791,45.061 27.020,45.334 26.190,45.430 L25.500,47.500 L25.500,45.500 C24.650,45.500 23.852,45.309 23.123,44.989 L21.500,46.428 L22.509,44.680 C21.805,44.269 21.200,43.713 20.717,43.061 L18.572,43.500 L20.336,42.481 C19.939,41.791 19.666,41.020 19.570,40.190 L17.500,39.500 L19.500,39.500 C19.500,38.650 19.691,37.852 20.011,37.123 L18.572,35.500 L20.320,36.509 C20.731,35.805 21.287,35.200 21.939,34.717 L21.500,32.572 L22.519,34.336 C23.209,33.939 23.980,33.666 24.810,33.570 L25.500,31.500 L25.500,33.500 C26.350,33.500 27.148,33.691 27.877,34.011 L29.500,32.572 L28.491,34.320 C29.195,34.731 29.800,35.287 30.283,35.939 L32.428,35.500 L30.664,36.519 C31.061,37.209 31.334,37.980 31.430,38.810 Z" class="cls-2"/>
        <path d="M154.500,36.500 C150.082,36.500 146.500,32.918 146.500,28.500 C146.500,24.082 150.082,20.500 154.500,20.500 C158.918,20.500 162.500,24.082 162.500,28.500 C162.500,32.918 158.918,36.500 154.500,36.500 ZM154.500,29.500 C153.948,29.500 153.500,29.052 153.500,28.500 C153.500,27.948 153.948,27.500 154.500,27.500 C155.052,27.500 155.500,27.948 155.500,28.500 C155.500,29.052 155.052,29.500 154.500,29.500 Z" class="cls-3"/>
        <circle cx="175.5" cy="51" r="6" class="cls-4"/>
        <circle cx="6.5" cy="60" r="6" class="cls-4"/>
        <circle cx="161" cy="75.5" r="4.5" class="cls-4"/>
        <path class="gear-m gear-5 cls-1" d="M164.016,55.531 L164.016,55.438 L168.016,55.438 L168.016,55.531 L164.016,55.531 ZM151.500,68.000 C148.067,68.000 144.960,66.615 142.701,64.375 L139.886,67.189 L139.820,67.123 L142.634,64.309 C140.399,62.060 139.015,58.965 139.002,55.547 L135.016,55.547 L135.016,55.453 L139.002,55.453 C139.015,52.029 140.403,48.930 142.644,46.680 L139.820,43.855 L139.886,43.789 L142.712,46.615 C144.970,44.381 148.073,43.000 151.500,43.000 C158.404,43.000 164.000,48.596 164.000,55.500 C164.000,62.404 158.404,68.000 151.500,68.000 ZM151.500,50.000 C148.462,50.000 146.000,52.462 146.000,55.500 C146.000,58.538 148.462,61.000 151.500,61.000 C154.538,61.000 157.000,58.538 157.000,55.500 C157.000,52.462 154.538,50.000 151.500,50.000 ZM151.562,72.000 L151.469,72.000 L151.469,68.000 L151.500,68.000 L151.562,68.000 L151.562,72.000 ZM151.453,39.000 L151.547,39.000 L151.547,43.000 L151.500,43.000 L151.453,43.000 L151.453,39.000 ZM160.315,46.606 L163.143,43.777 L163.210,43.844 L160.381,46.672 L160.315,46.606 ZM163.232,67.112 L163.165,67.178 L160.337,64.350 L160.403,64.284 L163.232,67.112 Z"/>
        <path class="gear-m gear-2 cls-1" d="M89.000,42.000 L92.000,43.000 L89.000,44.000 L89.000,42.000 ZM41.000,44.000 L38.000,43.000 L41.000,42.000 L41.000,44.000 ZM87.160,33.784 C88.342,36.623 89.000,39.734 89.000,43.000 C89.000,46.266 88.342,49.377 87.160,52.216 L87.556,51.261 L89.945,53.332 L86.790,53.108 L87.071,52.432 C84.645,58.101 80.101,62.645 74.432,65.071 L75.108,64.790 L75.332,67.945 L73.261,65.556 L74.216,65.160 C71.377,66.342 68.266,67.000 65.000,67.000 C61.734,67.000 58.623,66.342 55.784,65.160 L56.739,65.556 L54.668,67.945 L54.892,64.790 L55.568,65.071 C49.899,62.645 45.355,58.101 42.929,52.432 L43.210,53.108 L40.055,53.332 L42.444,51.261 L42.840,52.216 C41.658,49.377 41.000,46.266 41.000,43.000 C41.000,39.734 41.658,36.623 42.840,33.784 L42.444,34.739 L40.055,32.668 L43.210,32.892 L42.929,33.568 C45.355,27.899 49.899,23.355 55.568,20.929 L54.892,21.210 L54.668,18.055 L56.739,20.444 L55.784,20.840 C58.623,19.658 61.734,19.000 65.000,19.000 C68.266,19.000 71.377,19.658 74.216,20.840 L73.261,20.444 L75.332,18.055 L75.108,21.210 L74.432,20.929 C80.101,23.355 84.645,27.899 87.071,33.568 L86.790,32.892 L89.945,32.668 L87.556,34.739 L87.160,33.784 ZM65.000,30.000 C57.820,30.000 52.000,35.820 52.000,43.000 C52.000,50.180 57.820,56.000 65.000,56.000 C72.180,56.000 78.000,50.180 78.000,43.000 C78.000,35.820 72.180,30.000 65.000,30.000 ZM81.263,25.322 L84.092,23.908 L82.678,26.737 L81.263,25.322 ZM65.000,16.000 L66.000,19.000 L64.000,19.000 L65.000,16.000 ZM45.908,23.908 L48.737,25.322 L47.322,26.737 L45.908,23.908 ZM48.737,60.678 L45.908,62.092 L47.322,59.263 L48.737,60.678 ZM65.000,70.000 L64.000,67.000 L66.000,67.000 L65.000,70.000 ZM84.092,62.092 L81.263,60.678 L82.678,59.263 L84.092,62.092 Z"/>
        <path class="gear-m gear-3 cls-1" d="M130.923,73.822 L134.080,74.012 L131.441,75.754 L130.923,73.822 ZM128.285,68.134 L131.383,67.500 L129.285,69.866 L128.285,68.134 ZM124.263,63.322 L127.092,61.908 L125.678,64.737 L124.263,63.322 ZM119.134,59.715 L121.500,57.617 L120.866,60.715 L119.134,59.715 ZM114.988,54.920 L115.178,58.077 L113.246,57.559 L114.988,54.920 ZM108.000,54.000 L109.000,57.000 L107.000,57.000 L108.000,54.000 ZM101.012,54.920 L102.754,57.559 L100.822,58.077 L101.012,54.920 ZM94.500,57.617 L96.866,59.715 L95.134,60.715 L94.500,57.617 ZM88.908,61.908 L91.737,63.322 L90.322,64.737 L88.908,61.908 ZM84.617,67.500 L87.715,68.134 L86.715,69.866 L84.617,67.500 ZM84.559,75.754 L81.920,74.012 L85.077,73.822 L84.559,75.754 ZM84.000,82.000 L81.000,81.000 L84.000,80.000 L84.000,82.000 ZM85.077,88.178 L81.920,87.988 L84.559,86.246 L85.077,88.178 ZM87.715,93.866 L84.617,94.500 L86.715,92.134 L87.715,93.866 ZM91.737,98.678 L88.908,100.092 L90.322,97.263 L91.737,98.678 ZM96.866,102.285 L94.500,104.383 L95.134,101.285 L96.866,102.285 ZM101.012,107.080 L100.822,103.923 L102.754,104.441 L101.012,107.080 ZM108.000,108.000 L107.000,105.000 L109.000,105.000 L108.000,108.000 ZM114.988,107.080 L113.246,104.441 L115.178,103.923 L114.988,107.080 ZM121.500,104.383 L119.134,102.285 L120.866,101.285 L121.500,104.383 ZM127.092,100.092 L124.263,98.678 L125.678,97.263 L127.092,100.092 ZM131.383,94.500 L128.285,93.866 L129.285,92.134 L131.383,94.500 ZM108.000,105.000 C94.745,105.000 84.000,94.255 84.000,81.000 C84.000,67.745 94.745,57.000 108.000,57.000 C121.255,57.000 132.000,67.745 132.000,81.000 C132.000,94.255 121.255,105.000 108.000,105.000 ZM108.000,61.000 C96.954,61.000 88.000,69.954 88.000,81.000 C88.000,92.046 96.954,101.000 108.000,101.000 C119.046,101.000 128.000,92.046 128.000,81.000 C128.000,69.954 119.046,61.000 108.000,61.000 ZM108.000,87.000 C104.686,87.000 102.000,84.314 102.000,81.000 C102.000,77.686 104.686,75.000 108.000,75.000 C111.314,75.000 114.000,77.686 114.000,81.000 C114.000,84.314 111.314,87.000 108.000,87.000 ZM131.441,86.246 L134.080,87.988 L130.923,88.178 L131.441,86.246 ZM132.000,80.000 L135.000,81.000 L132.000,82.000 L132.000,80.000 Z"/>
        <path class="gear-m gear-4 cls-5" d="M139.957,21.081 L143.114,21.271 L140.475,23.013 L139.957,21.081 ZM137.419,15.634 L140.517,15.000 L138.419,17.366 L137.419,15.634 ZM133.556,11.029 L136.385,9.615 L134.971,12.444 L133.556,11.029 ZM128.634,7.581 L131.000,5.483 L130.366,8.581 L128.634,7.581 ZM124.729,2.886 L124.919,6.043 L122.987,5.525 L124.729,2.886 ZM118.000,2.000 L119.000,5.000 L117.000,5.000 L118.000,2.000 ZM111.271,2.886 L113.013,5.525 L111.081,6.043 L111.271,2.886 ZM105.000,5.483 L107.366,7.581 L105.634,8.581 L105.000,5.483 ZM99.615,9.615 L102.444,11.029 L101.029,12.444 L99.615,9.615 ZM95.483,15.000 L98.581,15.634 L97.581,17.366 L95.483,15.000 ZM95.525,23.013 L92.886,21.271 L96.043,21.081 L95.525,23.013 ZM95.000,29.000 L92.000,28.000 L95.000,27.000 L95.000,29.000 ZM96.043,34.919 L92.886,34.729 L95.525,32.987 L96.043,34.919 ZM98.581,40.366 L95.483,41.000 L97.581,38.634 L98.581,40.366 ZM102.444,44.971 L99.615,46.385 L101.029,43.556 L102.444,44.971 ZM107.366,48.419 L105.000,50.517 L105.634,47.419 L107.366,48.419 ZM111.271,53.114 L111.081,49.957 L113.013,50.475 L111.271,53.114 ZM118.000,54.000 L117.000,51.000 L119.000,51.000 L118.000,54.000 ZM124.729,53.114 L122.987,50.475 L124.919,49.957 L124.729,53.114 ZM131.000,50.517 L128.634,48.419 L130.366,47.419 L131.000,50.517 ZM136.385,46.385 L133.556,44.971 L134.971,43.556 L136.385,46.385 ZM140.517,41.000 L137.419,40.366 L138.419,38.634 L140.517,41.000 ZM118.000,51.000 C105.297,51.000 95.000,40.703 95.000,28.000 C95.000,15.297 105.297,5.000 118.000,5.000 C130.703,5.000 141.000,15.297 141.000,28.000 C141.000,40.703 130.703,51.000 118.000,51.000 ZM118.000,22.000 C114.686,22.000 112.000,24.686 112.000,28.000 C112.000,31.314 114.686,34.000 118.000,34.000 C121.314,34.000 124.000,31.314 124.000,28.000 C124.000,24.686 121.314,22.000 118.000,22.000 ZM118.000,30.000 C116.895,30.000 116.000,29.105 116.000,28.000 C116.000,26.895 116.895,26.000 118.000,26.000 C119.105,26.000 120.000,26.895 120.000,28.000 C120.000,29.105 119.105,30.000 118.000,30.000 ZM140.475,32.987 L143.114,34.729 L139.957,34.919 L140.475,32.987 ZM141.000,27.000 L144.000,28.000 L141.000,29.000 L141.000,27.000 Z"/>
    </g>
</svg>
