<svg xmlns="http://www.w3.org/2000/svg" xmlns:xlink="http://www.w3.org/1999/xlink" preserveAspectRatio="xMidYMid" width="68" height="92" viewBox="0 0 68 92">
  <defs>
    <style>
      .cls-1 {
        stroke: #c0c9d3;
        stroke-linecap: round;
        stroke-linejoin: round;
        stroke-width: 2px;
        fill: none;
        fill-rule: evenodd;
      }
    </style>
  </defs>
  <g>
    <path d="M50.000,55.000 C50.000,73.489 50.000,82.000 50.000,82.000 C50.000,86.418 46.418,90.000 42.000,90.000 L10.000,90.000 C5.582,90.000 2.000,86.418 2.000,82.000 L2.000,10.000 C2.000,5.582 5.582,2.000 10.000,2.000 L42.000,2.000 C46.418,2.000 50.000,5.582 50.000,10.000 C50.000,10.000 50.000,20.086 50.000,22.000 " class="cls-1"/>
    <path d="M46.000,55.000 C46.000,73.189 46.000,82.000 46.000,82.000 L6.000,82.000 L6.000,10.000 L46.000,10.000 C46.000,10.000 46.000,19.521 46.000,22.000 " class="cls-1"/>
    <path d="M18.000,86.000 L34.000,86.000 " class="cls-1"/>
    <path d="M26.000,26.000 L66.000,26.000 L66.000,50.000 L34.000,50.000 L26.000,58.000 L26.000,26.000 Z" class="cls-1"/>
    <path d="M26.000,26.000 L46.000,38.000 L66.000,26.000 " class="cls-1"/>
    <path d="M42.000,44.000 L42.000,44.000 " class="cls-1"/>
    <path d="M46.000,44.000 L46.000,44.000 " class="cls-1"/>
    <path d="M50.000,44.000 L50.000,44.000 " class="cls-1"/>
  </g>
</svg>
