<svg xmlns="http://www.w3.org/2000/svg" xmlns:xlink="http://www.w3.org/1999/xlink" preserveAspectRatio="xMidYMid" width="220" height="428" viewBox="0 0 220 428">
  <defs>
    <style>
      .cls-1, .cls-2 {
        stroke: #c0c9d3;
        stroke-linecap: round;
        stroke-linejoin: round;
        stroke-width: 2px;
        fill: none;
      }

      .cls-1 {
        fill-rule: evenodd;
      }
    </style>
  </defs>
  <g>
    <path d="M213.988,401.407 C213.988,415.772 207.120,419.151 190.927,421.256 C173.050,423.579 150.520,426.002 109.944,426.002 C69.368,426.002 46.952,423.579 29.074,421.256 C12.881,419.151 6.013,415.772 6.013,401.407 C6.013,396.896 6.013,254.330 6.013,146.095 C6.013,146.095 6.013,38.597 6.013,25.562 C6.013,11.196 12.881,8.505 29.074,6.400 C46.952,4.076 69.481,1.998 110.057,1.998 C150.633,1.998 173.050,4.076 190.927,6.400 C207.120,8.505 213.988,11.196 213.988,25.562 C213.988,40.488 213.988,-46.422 213.988,401.407 Z" class="cls-1"/>
    <path d="M206.006,34.003 L14.014,34.003 L14.014,390.012 L206.006,390.012 L206.006,34.003 Z" class="cls-1"/>
    <circle cx="109" cy="17" r="6" class="cls-2"/>
    <path d="M214.000,54.000 L218.000,54.000 L218.000,82.000 L214.000,82.000 " class="cls-1"/>
    <path d="M6.000,82.000 L2.000,82.000 L2.000,154.000 L6.000,154.000 " class="cls-1"/>
    <circle cx="41" cy="17" r="4" class="cls-2"/>
    <circle cx="173" cy="17" r="4" class="cls-2"/>
    <circle cx="185" cy="17" r="3" class="cls-2"/>
  </g>
</svg>
