<svg xmlns="http://www.w3.org/2000/svg" xmlns:xlink="http://www.w3.org/1999/xlink" preserveAspectRatio="xMidYMid" width="84" height="132" viewBox="0 0 84 132">
  <defs>
    <style>
      .cls-1 {
        stroke: #c0c9d3;
        stroke-linecap: round;
        stroke-linejoin: round;
        stroke-width: 2px;
        fill: none;
        fill-rule: evenodd;
      }
    </style>
  </defs>
  <g>
    <path d="M10.000,2.000 L74.000,2.000 C78.418,2.000 82.000,5.582 82.000,10.000 L82.000,106.000 C82.000,110.418 78.418,114.000 74.000,114.000 L10.000,114.000 C5.582,114.000 2.000,110.418 2.000,106.000 L2.000,10.000 C2.000,5.582 5.582,2.000 10.000,2.000 Z" class="cls-1"/>
    <path d="M78.000,66.000 C78.000,84.504 78.000,106.000 78.000,106.000 C78.000,108.209 76.209,110.000 74.000,110.000 L10.000,110.000 C7.791,110.000 6.000,108.209 6.000,106.000 C6.000,106.000 6.000,84.557 6.000,66.000 M6.000,50.000 C6.000,32.293 6.000,10.000 6.000,10.000 C6.000,7.791 7.791,6.000 10.000,6.000 L74.000,6.000 C76.209,6.000 78.000,7.791 78.000,10.000 C78.000,10.000 78.000,32.308 78.000,50.000 " class="cls-1"/>
    <path d="M6.000,58.000 L6.000,58.000 " class="cls-1"/>
    <path d="M78.000,58.000 L78.000,58.000 " class="cls-1"/>
    <path d="M26.000,114.000 L26.000,130.000 " class="cls-1"/>
    <path d="M58.000,114.000 L58.000,130.000 " class="cls-1"/>
    <path d="M82.000,130.000 L2.000,130.000 " class="cls-1"/>
  </g>
</svg>
